<?xml version="1.0" encoding="UTF-8"?>
<!DOCTYPE svg PUBLIC "-//W3C//DTD SVG 1.0//EN" "http://www.w3.org/TR/2001/REC-SVG-20010904/DTD/svg10.dtd">
<!-- Creator: CorelDRAW X7 -->
<svg xmlns="http://www.w3.org/2000/svg" xml:space="preserve" width="3.6641mm" height="3.9794mm" version="1.0" style="shape-rendering:geometricPrecision; text-rendering:geometricPrecision; image-rendering:optimizeQuality; fill-rule:evenodd; clip-rule:evenodd"
viewBox="0 0 366 398"
 xmlns:xlink="http://www.w3.org/1999/xlink">
 <defs>
  <style type="text/css">
   <![CDATA[
    .str0 {stroke:#FFB47F;stroke-width:16.9305;stroke-linecap:round;stroke-linejoin:round}
    .fil0 {fill:none}
   ]]>
  </style>
 </defs>
 <g id="Camada_x0020_1">
  <metadata id="CorelCorpID_0Corel-Layer"/>
  <g id="_2756913523600">
   <path class="fil0 str0" d="M8 218c0,-22 18,-39 39,-39l198 0c22,0 39,17 39,39l0 133c0,21 -17,38 -39,38l-198 0c-21,0 -39,-17 -39,-38l0 -26m0 -31l0 -26"/>
   <path class="fil0 str0" d="M47 179l47 0 0 -68c0,-29 23,-53 52,-53l0 0c29,0 53,24 53,53 0,13 10,23 23,23 13,0 23,-10 23,-23 0,-56 -41,-103 -99,-103l0 0c-54,0 -99,45 -99,100l0 71z"/>
   <path class="fil0 str0" d="M311 149l47 0"/>
   <path class="fil0 str0" d="M300 112l40 -23"/>
   <path class="fil0 str0" d="M300 185l40 23"/>
  </g>
 </g>
</svg>
