<?xml version="1.0" encoding="UTF-8"?>
<!DOCTYPE svg PUBLIC "-//W3C//DTD SVG 1.0//EN" "http://www.w3.org/TR/2001/REC-SVG-20010904/DTD/svg10.dtd">
<!-- Creator: CorelDRAW X7 -->
<svg xmlns="http://www.w3.org/2000/svg" xml:space="preserve" width="3.9794mm" height="3.9794mm" version="1.0" style="shape-rendering:geometricPrecision; text-rendering:geometricPrecision; image-rendering:optimizeQuality; fill-rule:evenodd; clip-rule:evenodd"
viewBox="0 0 398 398"
 xmlns:xlink="http://www.w3.org/1999/xlink">
 <defs>
  <style type="text/css">
   <![CDATA[
    .fil0 {fill:none}
    .fil1 {fill:#FFB47F;fill-rule:nonzero}
   ]]>
  </style>
 </defs>
 <g id="Camada_x0020_1">
  <metadata id="CorelCorpID_0Corel-Layer"/>
  <rect class="fil0" width="398" height="398"/>
  <path class="fil1" d="M311 192c-4,-2 -5,-7 -3,-11 3,-4 8,-6 12,-3l40 23c4,2 5,7 3,11 -2,4 -7,6 -11,4l-41 -24zm-278 26c0,4 -4,8 -9,8 -4,0 -8,-4 -8,-8 0,-13 5,-25 14,-34l0 0c6,-6 15,-11 24,-13l0 -63c0,-30 13,-57 32,-76 20,-20 46,-32 76,-32 31,0 57,12 76,32 20,20 32,48 32,79 0,8 -4,16 -10,22l0 0c-5,6 -13,9 -22,9 -9,0 -17,-3 -22,-9l0 0c-6,-6 -10,-14 -10,-22 0,-12 -5,-24 -13,-32 -8,-8 -19,-12 -31,-12l0 0c-12,0 -23,4 -31,12l0 0c-8,8 -13,20 -13,32l0 59 143 0c13,0 25,6 34,14l0 0c8,9 13,21 13,34l0 133c0,13 -5,25 -13,33l-1 1c-9,8 -20,13 -33,13l-198 0c-13,0 -25,-5 -33,-14 -9,-8 -14,-20 -14,-33l0 -26c0,-5 4,-8 8,-8 5,0 9,3 9,8l0 26c0,8 3,16 9,21 5,6 13,9 21,9l198 0c8,0 16,-3 21,-8l1 -1c5,-5 8,-13 8,-21l0 -133c0,-9 -3,-16 -8,-22l0 0c-6,-5 -13,-9 -22,-9l-151 0 -1 0 -46 0 0 0 0 0 0 0c-9,0 -16,4 -21,9l0 0c-6,6 -9,13 -9,22zm0 76c0,5 -4,9 -9,9 -4,0 -8,-4 -8,-9l0 -26c0,-5 4,-9 8,-9 5,0 9,4 9,9l0 26zm38 -124l30 0 0 -59c0,-17 7,-32 18,-43l0 0c11,-12 26,-18 43,-18l0 0c17,0 32,6 43,18 11,11 18,26 18,43 0,4 2,7 5,10 2,3 6,4 10,4 4,0 8,-1 10,-4l0 0c3,-3 5,-6 5,-10 0,-26 -10,-50 -27,-67 -16,-17 -38,-27 -64,-27 -25,0 -48,10 -64,27 -16,16 -27,39 -27,64l0 62zm256 -13c-4,0 -8,-4 -8,-8 0,-5 4,-9 8,-9l47 0c4,0 8,4 8,9 0,4 -4,8 -8,8l-47 0zm-7 -37c-4,2 -9,0 -12,-4 -2,-4 -1,-9 3,-11l41 -23c4,-3 9,-1 11,3 2,4 1,9 -3,11l-40 24z"/>
 </g>
</svg>
