<?xml version="1.0" encoding="UTF-8"?>
<!DOCTYPE svg PUBLIC "-//W3C//DTD SVG 1.0//EN" "http://www.w3.org/TR/2001/REC-SVG-20010904/DTD/svg10.dtd">
<!-- Creator: CorelDRAW X7 -->
<svg xmlns="http://www.w3.org/2000/svg" xml:space="preserve" width="3.9793mm" height="3.8811mm" version="1.0" style="shape-rendering:geometricPrecision; text-rendering:geometricPrecision; image-rendering:optimizeQuality; fill-rule:evenodd; clip-rule:evenodd"
viewBox="0 0 398 388"
 xmlns:xlink="http://www.w3.org/1999/xlink">
 <defs>
  <style type="text/css">
   <![CDATA[
    .str0 {stroke:#FFB47F;stroke-width:16.9296;stroke-linecap:round;stroke-linejoin:round}
    .fil0 {fill:none}
   ]]>
  </style>
 </defs>
 <g id="Camada_x0020_1">
  <metadata id="CorelCorpID_0Corel-Layer"/>
  <g id="_2756913472784">
   <path class="fil0 str0" d="M219 179l0 0c-11,-11 -11,-28 0,-39l131 -132 39 40 -131 131c-11,11 -29,11 -39,0z"/>
   <path class="fil0 str0" d="M299 202l-32 -32 -9 9c-11,11 -29,11 -39,0l0 0c-11,-11 -11,-28 0,-39l-211 210 0 0c39,39 103,39 142,0l149 -148z"/>
   <path class="fil0 str0" d="M289 109l1 -1"/>
   <path class="fil0 str0" d="M254 144l1 -1"/>
   <path class="fil0 str0" d="M273 187l-158 158"/>
   <path class="fil0 str0" d="M194 266l0 41"/>
   <path class="fil0 str0" d="M229 231l0 41"/>
  </g>
 </g>
</svg>
