<?xml version="1.0" encoding="UTF-8"?>
<!DOCTYPE svg PUBLIC "-//W3C//DTD SVG 1.0//EN" "http://www.w3.org/TR/2001/REC-SVG-20010904/DTD/svg10.dtd">
<!-- Creator: CorelDRAW X7 -->
<svg xmlns="http://www.w3.org/2000/svg" xml:space="preserve" width="21.6738mm" height="21.6738mm" version="1.0" style="shape-rendering:geometricPrecision; text-rendering:geometricPrecision; image-rendering:optimizeQuality; fill-rule:evenodd; clip-rule:evenodd"
viewBox="0 0 2167 2167"
 xmlns:xlink="http://www.w3.org/1999/xlink">
 <defs>
  <style type="text/css">
   <![CDATA[
    .str0 {stroke:#FFB47F;stroke-width:50.7895;stroke-linecap:round;stroke-linejoin:round}
    .fil0 {fill:none}
   ]]>
  </style>
 </defs>
 <g id="Camada_x0020_1">
  <metadata id="CorelCorpID_0Corel-Layer"/>
  <g id="_2756913520944">
   <path class="fil0 str0" d="M1124 562c121,-41 251,-86 390,-140l307 -316c86,-88 212,-85 317,-76 9,104 11,231 -76,316l-317 307c-54,140 -98,270 -139,391 -188,549 -307,932 -916,1097 -25,7 -60,-17 -67,-42 -7,-25 8,-52 34,-58 851,-280 666,-922 958,-1430l-58 -58c-508,292 -1151,107 -1430,958 -7,25 -33,40 -58,33 -26,-7 -49,-41 -42,-66 85,-315 231,-530 517,-687m97 -49c60,-27 122,-52 188,-77"/>
   <path class="fil0 str0" d="M2038 129l-124 124 69 168"/>
   <path class="fil0 str0" d="M1073 971c0,0 161,636 56,794"/>
  </g>
 </g>
</svg>
