<?xml version="1.0" encoding="UTF-8"?>
<!DOCTYPE svg PUBLIC "-//W3C//DTD SVG 1.0//EN" "http://www.w3.org/TR/2001/REC-SVG-20010904/DTD/svg10.dtd">
<!-- Creator: CorelDRAW X7 -->
<svg xmlns="http://www.w3.org/2000/svg" xml:space="preserve" width="21.6747mm" height="21.1269mm" version="1.0" style="shape-rendering:geometricPrecision; text-rendering:geometricPrecision; image-rendering:optimizeQuality; fill-rule:evenodd; clip-rule:evenodd"
viewBox="0 0 2167 2113"
 xmlns:xlink="http://www.w3.org/1999/xlink">
 <defs>
  <style type="text/css">
   <![CDATA[
    .str0 {stroke:#FFB47F;stroke-width:50.7902;stroke-linecap:round;stroke-linejoin:round}
    .fil0 {fill:none}
   ]]>
  </style>
 </defs>
 <g id="Camada_x0020_1">
  <metadata id="CorelCorpID_0Corel-Layer"/>
  <path class="fil0 str0" d="M1550 25c150,6 298,66 412,180 240,240 240,630 0,870 -168,168 -409,219 -621,152l-128 128 -38 -38 -120 120 -161 44 -83 139 -161 50 -62 162 -150 61 -78 122 -283 72 -52 -271 825 -824 -38 -38 128 -128c-48,-152 -28,-317 39,-465m113 -156c70,-68 151,-118 237,-148m506 275c-65,-66 -171,-66 -236,0 -65,65 -65,171 0,236 65,65 171,65 236,0 66,-65 66,-171 0,-236z"/>
 </g>
</svg>
