<?xml version="1.0" encoding="UTF-8"?>
<!DOCTYPE svg PUBLIC "-//W3C//DTD SVG 1.0//EN" "http://www.w3.org/TR/2001/REC-SVG-20010904/DTD/svg10.dtd">
<!-- Creator: CorelDRAW X7 -->
<svg xmlns="http://www.w3.org/2000/svg" xml:space="preserve" width="21.6746mm" height="21.6746mm" version="1.0" style="shape-rendering:geometricPrecision; text-rendering:geometricPrecision; image-rendering:optimizeQuality; fill-rule:evenodd; clip-rule:evenodd"
viewBox="0 0 2167 2167"
 xmlns:xlink="http://www.w3.org/1999/xlink">
 <defs>
  <style type="text/css">
   <![CDATA[
    .fil0 {fill:none}
    .fil1 {fill:#FFC79F;fill-rule:nonzero}
   ]]>
  </style>
 </defs>
 <g id="Camada_x0020_1">
  <metadata id="CorelCorpID_0Corel-Layer"/>
  <rect class="fil0" transform="matrix(1.50676E-013 -5.6892 5.6892 1.50676E-013 -0.00496695 2167.46)" width="381" height="381"/>
  <path class="fil1" d="M586 1036c4,13 -3,27 -16,32 -13,4 -28,-3 -32,-16l-1 -4c-41,-119 -84,-246 -136,-381l-313 -303c-48,-47 -71,-105 -82,-165 -9,-58 -6,-118 -2,-171 1,-13 11,-23 24,-24 53,-4 113,-7 171,3 61,10 118,33 165,81l303 313c67,25 133,49 197,72 65,23 128,44 188,65l32 11c540,184 916,312 1081,922l0 0c6,20 0,42 -11,60 -12,18 -29,33 -48,38l-2 0c-19,5 -38,2 -54,-7 -1,-1 -1,-1 -2,-2 -15,-9 -27,-24 -32,-42 -69,-211 -162,-357 -269,-462 -157,-92 -768,63 -770,63 -13,4 -27,-5 -30,-18 -4,-14 4,-28 18,-31 2,0 448,-114 695,-88 -167,-123 -360,-174 -556,-225 -165,-43 -332,-86 -489,-173l-31 31c87,157 130,324 173,489 96,367 189,724 761,912 19,5 34,18 44,34 0,1 0,2 1,2 8,16 11,35 6,53 -5,20 -20,37 -38,49 -18,11 -40,17 -60,11l-1 0c-160,-43 -294,-102 -409,-187 -116,-86 -211,-197 -292,-343 -7,-12 -2,-28 10,-34 12,-7 28,-3 35,10 76,139 167,245 276,326 110,81 239,137 393,179l1 0c5,2 13,-1 20,-5 8,-5 14,-12 16,-19 1,-5 1,-11 -2,-15l0 -2c-3,-4 -8,-8 -14,-10l0 0 -1 0c-599,-197 -696,-568 -795,-949 -43,-167 -87,-336 -176,-491 -7,-10 -6,-23 3,-32l58 -58 0 0c8,-8 20,-10 30,-4 156,89 326,133 493,177 381,99 751,196 948,793 1,1 1,2 1,3 2,6 5,10 9,13l1 1c5,2 11,3 17,2l0 0c7,-2 14,-8 19,-16 4,-7 7,-15 5,-20l0 0 0 0c-157,-584 -523,-709 -1048,-887l-32 -11c-61,-21 -124,-42 -189,-65 -64,-23 -131,-47 -202,-75 -4,-1 -7,-3 -10,-6l-219 -226 -152 62c-9,5 -21,3 -29,-5l-124 -124c-10,-10 -10,-26 0,-36 10,-10 26,-10 36,0l112 112 119 -48 -50 -52c-38,-39 -86,-58 -137,-66 -45,-8 -93,-7 -138,-4 -3,45 -4,93 3,138 9,50 28,99 67,137l317 307c3,2 5,5 6,9 54,140 98,268 139,388l1 4zm180 479c5,13 0,28 -13,34 -12,6 -28,0 -33,-12 -14,-29 -27,-60 -41,-93 -13,-31 -25,-64 -38,-97 -5,-13 2,-28 15,-33 13,-5 28,2 33,15 12,33 24,65 37,96 12,30 25,60 40,90z"/>
 </g>
</svg>
