<?xml version="1.0" encoding="UTF-8"?>
<!DOCTYPE svg PUBLIC "-//W3C//DTD SVG 1.0//EN" "http://www.w3.org/TR/2001/REC-SVG-20010904/DTD/svg10.dtd">
<!-- Creator: CorelDRAW X7 -->
<svg xmlns="http://www.w3.org/2000/svg" xml:space="preserve" width="3.9794mm" height="2.9882mm" version="1.0" style="shape-rendering:geometricPrecision; text-rendering:geometricPrecision; image-rendering:optimizeQuality; fill-rule:evenodd; clip-rule:evenodd"
viewBox="0 0 398 299"
 xmlns:xlink="http://www.w3.org/1999/xlink">
 <defs>
  <style type="text/css">
   <![CDATA[
    .str0 {stroke:#FFB47F;stroke-width:16.9291;stroke-linecap:round;stroke-linejoin:round}
    .fil0 {fill:none}
    .fil1 {fill:#FFB47F}
   ]]>
  </style>
 </defs>
 <g id="Camada_x0020_1">
  <metadata id="CorelCorpID_0Corel-Layer"/>
  <g id="_2756913516944">
   <path class="fil0 str0" d="M115 8l65 0m25 0l149 0c19,0 35,17 35,36l0 211c0,19 -16,35 -35,35l-310 0c-19,0 -36,-16 -36,-35l0 -211c0,-19 17,-36 36,-36l34 0"/>
   <path class="fil1" d="M389 58l0 50 -381 0 0 -50 381 0z"/>
   <path class="fil1" d="M56 171l0 48c0,13 11,24 24,24l47 0c13,0 24,-11 24,-24l0 -48c0,-13 -11,-24 -24,-24l-47 0c-13,0 -24,11 -24,24z"/>
  </g>
 </g>
</svg>
