<?xml version="1.0" encoding="UTF-8"?>
<!DOCTYPE svg PUBLIC "-//W3C//DTD SVG 1.0//EN" "http://www.w3.org/TR/2001/REC-SVG-20010904/DTD/svg10.dtd">
<!-- Creator: CorelDRAW X7 -->
<svg xmlns="http://www.w3.org/2000/svg" xml:space="preserve" width="12.5308mm" height="12.5308mm" version="1.0" style="shape-rendering:geometricPrecision; text-rendering:geometricPrecision; image-rendering:optimizeQuality; fill-rule:evenodd; clip-rule:evenodd"
viewBox="0 0 1253 1253"
 xmlns:xlink="http://www.w3.org/1999/xlink">
 <defs>
  <style type="text/css">
   <![CDATA[
    .fil0 {fill:none}
    .fil1 {fill:#FFC79F;fill-rule:nonzero}
   ]]>
  </style>
 </defs>
 <g id="Camada_x0020_1">
  <metadata id="CorelCorpID_0Corel-Layer"/>
  <rect class="fil0" width="1253" height="1253"/>
  <g>
   <path class="fil1" d="M891 66c-14,0 -25,-12 -25,-26 1,-14 12,-25 26,-24 47,2 93,12 136,31 42,18 81,44 115,78 73,73 110,169 110,265 0,96 -37,192 -110,265 -50,50 -111,84 -176,99 -61,15 -126,14 -187,-2l-62 62c-10,10 -26,10 -36,0l-4 -3 -50 50c-3,3 -8,6 -13,6l-80 22 -42 71c-3,5 -8,9 -14,11l0 0 -80 25 -30 80c-3,7 -8,12 -14,14l0 0 -78 32 -40 62c-3,6 -9,10 -15,11l0 0 -161 42c-13,3 -27,-5 -31,-19 0,-1 0,-2 0,-3l-29 -152c-2,-9 1,-17 7,-23l0 0 450 -450 -4 -3c-9,-10 -9,-26 0,-36l0 0 62 -62c-10,-41 -14,-83 -10,-124l0 -1c4,-49 17,-97 38,-143 5,-13 20,-18 33,-13 13,6 19,21 13,34 -18,40 -30,83 -33,126l-1 1c-3,40 1,80 13,118 3,9 1,20 -6,27l-55 55 2 2 2 1c10,10 10,26 0,36l-459 459 22 114 125 -32 38 -60c2,-5 7,-9 13,-11l75 -31 30 -81 0 0c3,-7 9,-13 17,-15l82 -26 42 -70c3,-6 9,-10 15,-12l85 -23 63 -63c10,-10 26,-10 36,0l4 3 54 -55 0 0c7,-6 17,-9 26,-6 57,18 118,20 175,6 56,-13 109,-42 152,-86 63,-63 95,-146 95,-229 0,-83 -32,-166 -95,-229 -29,-29 -63,-52 -99,-68 -37,-16 -77,-25 -117,-27zm-861 1149c-2,-12 6,-25 19,-28l-19 28zm619 -1054c-10,10 -27,10 -36,0 -10,-10 -10,-26 0,-36 22,-21 45,-39 69,-54 24,-15 50,-27 76,-36 13,-4 28,3 32,16 4,13 -3,28 -16,32 -22,8 -44,18 -65,31 -21,13 -42,29 -60,47zm386 72c-13,-14 -31,-20 -49,-20 -18,0 -35,6 -49,20l0 0c-13,14 -20,31 -20,49 0,18 7,36 20,49l0 0 0 0c14,14 31,21 49,21 18,0 36,-7 49,-21l2 -1c12,-13 19,-31 19,-48 0,-18 -7,-35 -21,-49zm-49 -71c31,0 62,12 85,35 24,24 36,54 36,85 0,30 -12,60 -34,84 -1,0 -1,1 -2,1 -23,24 -54,35 -85,35 -31,0 -61,-11 -85,-35l0 0 0 0 0 0c-23,-23 -35,-54 -35,-85 0,-31 12,-61 35,-85l0 0c24,-23 54,-35 85,-35z"/>
  </g>
 </g>
</svg>
