<?xml version="1.0" encoding="UTF-8"?>
<!DOCTYPE svg PUBLIC "-//W3C//DTD SVG 1.0//EN" "http://www.w3.org/TR/2001/REC-SVG-20010904/DTD/svg10.dtd">
<!-- Creator: CorelDRAW X7 -->
<svg xmlns="http://www.w3.org/2000/svg" xml:space="preserve" width="3.9794mm" height="3.9794mm" version="1.0" style="shape-rendering:geometricPrecision; text-rendering:geometricPrecision; image-rendering:optimizeQuality; fill-rule:evenodd; clip-rule:evenodd"
viewBox="0 0 398 398"
 xmlns:xlink="http://www.w3.org/1999/xlink">
 <defs>
  <style type="text/css">
   <![CDATA[
    .fil0 {fill:none}
    .fil1 {fill:#FFB47F;fill-rule:nonzero}
   ]]>
  </style>
 </defs>
 <g id="Camada_x0020_1">
  <metadata id="CorelCorpID_0Corel-Layer"/>
  <rect class="fil0" width="398" height="398"/>
  <path class="fil1" d="M206 52c-3,3 -8,3 -12,0 -3,-4 -3,-9 1,-12 6,-7 14,-13 21,-17 8,-5 16,-9 25,-12 4,-1 9,1 10,5 2,5 -1,10 -5,11 -7,3 -14,6 -21,10 -6,4 -13,9 -19,15zm-161 45c2,5 -1,9 -5,11 -5,1 -10,-2 -11,-6l-20 -67c-2,-4 1,-9 5,-10 2,-1 5,0 6,0l0 0 27 12 27 -29c3,-4 9,-4 12,-1l1 1 0 0 27 29 27 -12c4,-2 9,0 11,5 0,2 1,4 0,5l0 0 -19 67c-1,4 -4,6 -8,6l0 0 -58 0c-4,0 -8,-4 -8,-8 0,-5 4,-9 8,-9l51 0 13 -43 -15 7c-4,1 -8,0 -10,-2l-26 -27 -25 27 0 0c-2,2 -6,3 -10,2l-15 -7 15 49zm127 -27c2,-4 7,-6 11,-4 5,2 7,7 5,11 -6,13 -10,27 -11,40 -1,13 0,26 4,38 1,3 0,7 -2,9l-17 17 1 0c3,4 3,9 0,12l0 0 -145 146 6 35 39 -10 13 -19c1,-2 2,-3 4,-3l0 0 23 -10 10 -25c1,-3 3,-5 5,-6l26 -8 14 -22c1,-2 3,-3 5,-4l26 -7 20 -20c4,-3 9,-3 12,0l1 0 0 1 17 -17c3,-3 6,-3 9,-2 18,5 37,6 55,1 18,-4 34,-13 48,-27 20,-20 30,-46 30,-72 0,-26 -10,-52 -30,-72l0 0 0 0c-9,-10 -20,-17 -31,-22 -12,-5 -25,-8 -37,-8 -5,0 -9,-4 -8,-9 0,-5 4,-8 8,-8 15,1 30,4 43,10 14,6 26,14 37,25l0 0c23,23 35,54 35,84 0,31 -12,61 -35,84 -16,16 -35,27 -56,32 -19,5 -40,4 -59,-1l-20 20 0 0 0 0c-3,3 -9,3 -12,0l-1 -1 -15 15 0 0c-1,1 -2,2 -4,3l-26 7 -13 22c-1,1 -3,3 -5,4l-25 7 -9 25c-1,2 -3,4 -5,5l-25 10 -12 20c-1,2 -3,3 -5,4l-51 13 0 0 -1 0c-4,1 -9,-2 -10,-7l-9 -48c0,-3 0,-6 2,-8l143 -143 -1 0c-3,-4 -3,-9 0,-12l20 -20c-4,-13 -5,-26 -4,-39 2,-16 6,-31 12,-46zm156 5l0 0c-4,-5 -9,-7 -15,-7 -6,0 -11,2 -15,7l0 0c-4,4 -7,9 -7,15 0,5 3,11 7,15l0 0 0 0c4,4 9,6 15,6 6,0 11,-2 15,-6l0 0 0 0c5,-4 7,-10 7,-15 0,-6 -2,-11 -7,-15l0 -1 0 1zm12 -12l0 0 0 0c8,7 12,17 12,27 0,10 -4,20 -12,27l0 0 0 0 0 0c-7,8 -17,11 -27,11 -10,0 -20,-3 -27,-11l0 0 0 0 0 0c-8,-8 -12,-17 -12,-27 0,-10 4,-20 12,-27l0 0c7,-8 17,-12 27,-12 10,0 20,4 27,12z"/>
 </g>
</svg>
