<?xml version="1.0" encoding="UTF-8"?>
<!DOCTYPE svg PUBLIC "-//W3C//DTD SVG 1.0//EN" "http://www.w3.org/TR/2001/REC-SVG-20010904/DTD/svg10.dtd">
<!-- Creator: CorelDRAW X7 -->
<svg xmlns="http://www.w3.org/2000/svg" xml:space="preserve" width="3.9794mm" height="3.8654mm" version="1.0" style="shape-rendering:geometricPrecision; text-rendering:geometricPrecision; image-rendering:optimizeQuality; fill-rule:evenodd; clip-rule:evenodd"
viewBox="0 0 398 387"
 xmlns:xlink="http://www.w3.org/1999/xlink">
 <defs>
  <style type="text/css">
   <![CDATA[
    .str0 {stroke:#FFB47F;stroke-width:16.93;stroke-linecap:round;stroke-linejoin:round}
    .fil0 {fill:none}
   ]]>
  </style>
 </defs>
 <g id="Camada_x0020_1">
  <metadata id="CorelCorpID_0Corel-Layer"/>
  <g id="_2756913500592">
   <path class="fil0 str0" d="M270 9c31,-2 62,9 85,33l1 1c45,44 45,116 0,160l-42 43c-19,18 -49,18 -67,0l-95 -95c-18,-18 -18,-48 0,-67l25 -25m18 -17c12,-12 25,-21 40,-26"/>
   <path class="fil0 str0" d="M173 172l54 54 -152 152 -54 0 -13 -12 0 -30 165 -164z"/>
   <rect class="fil0 str0" transform="matrix(0.157841 0.157842 -0.157841 0.157842 277.547 41.5288)" width="483" height="195" rx="97" ry="97"/>
  </g>
 </g>
</svg>
