<?xml version="1.0" encoding="UTF-8"?>
<!DOCTYPE svg PUBLIC "-//W3C//DTD SVG 1.0//EN" "http://www.w3.org/TR/2001/REC-SVG-20010904/DTD/svg10.dtd">
<!-- Creator: CorelDRAW X7 -->
<svg xmlns="http://www.w3.org/2000/svg" xml:space="preserve" width="4.1486mm" height="4.0499mm" version="1.0" style="shape-rendering:geometricPrecision; text-rendering:geometricPrecision; image-rendering:optimizeQuality; fill-rule:evenodd; clip-rule:evenodd"
viewBox="0 0 415 405"
 xmlns:xlink="http://www.w3.org/1999/xlink">
 <defs>
  <style type="text/css">
   <![CDATA[
    .fil1 {fill:#FFB47F}
    .fil0 {fill:#FFB47F;fill-rule:nonzero}
   ]]>
  </style>
 </defs>
 <g id="Camada_x0020_1">
  <metadata id="CorelCorpID_0Corel-Layer"/>
  <g>
   <path class="fil0" d="M291 25c-5,0 -8,-4 -8,-8 0,-5 4,-9 9,-9l-1 17zm80 18l-11 12 0 0 -2 -1 -2 -2 -2 -2 -2 -1 -2 -2 -2 -1 -2 -2 -2 -1 -2 -2 -2 -1 -2 -1 -2 -1 -2 -1 -2 -1 -2 -1 -2 -1 -3 -1 -2 -1 -2 -1 -2 -1 -3 0 -2 -1 -2 -1 -2 0 -3 -1 -2 0 -2 -1 -3 0 -2 0 -2 0 -3 0 -2 -1 1 -17 2 1 3 0 3 0 3 0 2 1 3 0 3 1 2 0 3 1 3 1 2 0 3 1 2 1 3 1 3 1 2 1 3 1 2 1 3 2 2 1 3 1 2 2 2 1 3 2 2 1 2 2 3 2 2 1 2 2 2 2 2 2 2 2 0 0zm0 169l-11 -12 0 0 3 -4 4 -4 3 -4 3 -4 2 -4 3 -5 2 -4 2 -5 2 -5 1 -4 2 -5 1 -5 0 -5 1 -5 0 -4 0 -5 0 -5 0 -5 -1 -5 0 -5 -1 -5 -2 -5 -1 -4 -2 -5 -2 -4 -2 -5 -3 -4 -2 -5 -3 -4 -3 -4 -4 -4 -3 -4 11 -12 5 5 4 4 3 5 4 5 3 5 3 5 2 5 3 6 2 5 1 6 2 5 1 6 1 5 1 6 0 6 0 6 0 5 0 6 -1 6 -1 5 -1 6 -2 6 -1 5 -2 5 -3 6 -2 5 -3 5 -3 5 -4 5 -3 5 -4 4 -5 5 0 0zm-111 27l-12 -12 8 -2 4 1 3 1 3 1 4 0 3 1 3 0 4 1 3 0 4 0 3 0 4 0 3 -1 3 0 4 0 3 -1 4 -1 3 -1 3 -1 4 -1 3 -1 3 -1 3 -2 3 -1 4 -2 3 -2 3 -1 3 -2 2 -3 3 -2 3 -2 3 -3 3 -2 11 12 -3 3 -3 3 -3 2 -3 3 -4 2 -3 3 -4 2 -3 2 -4 2 -4 2 -3 1 -4 2 -4 1 -4 2 -4 1 -4 1 -3 1 -4 0 -4 1 -4 0 -4 1 -4 0 -4 0 -4 0 -4 0 -4 -1 -4 0 -4 -1 -4 -1 -4 -1 -4 -1 -4 -1 9 -2zm-9 2c-4,-1 -7,-6 -5,-10 1,-5 6,-7 10,-6l-5 16zm-26 9l23 -23 12 12 -23 23 -12 0 0 -12zm12 12c-4,4 -9,4 -12,0 -4,-3 -4,-8 0,-12l12 12zm-7 -19l7 7 -12 12 -7 -7 0 -12 12 0zm-12 12c-3,-3 -3,-8 0,-12 3,-3 9,-3 12,0l-12 12zm-22 10l22 -22 12 12 -22 22 -3 2 -9 -14zm12 12c-3,3 -8,3 -12,0 -3,-3 -3,-9 0,-12l12 12zm-37 -6l29 -8 5 16 -29 8 -10 -12 5 -4zm5 16c-5,1 -10,-1 -11,-6 -1,-4 2,-9 6,-10l5 16zm-25 13l15 -25 15 8 -15 25 -5 4 -10 -12zm15 8c-3,4 -8,6 -12,3 -4,-2 -5,-7 -3,-11l15 8zm-39 -3l29 -9 5 16 -29 9 -11 -11 6 -5zm5 16c-5,1 -9,-1 -11,-5 -1,-5 1,-10 6,-11l5 16zm-22 18l11 -29 16 6 -11 29 -5 5 -11 -11zm16 6c-1,4 -6,7 -11,5 -4,-2 -6,-7 -5,-11l16 6zm-38 0l27 -11 6 16 -27 11 -10 -13 4 -3zm6 16c-4,2 -9,0 -11,-5 -1,-4 1,-9 5,-11l6 16zm-24 10l14 -23 14 10 -14 22 -5 3 -9 -12zm14 9c-2,4 -7,5 -11,2 -4,-2 -5,-8 -3,-11l14 9zm-60 0l51 -13 4 16 -51 13 -10 -6 6 -10zm4 16c-4,1 -9,-1 -10,-6 -1,-4 2,-9 6,-10l4 16zm-3 -58l10 48 -17 4 -9 -49 2 -8 14 5zm-16 3c-1,-5 2,-9 6,-10 5,-1 9,2 10,7l-16 3zm162 -144l-148 148 -12 -12 148 -148 12 0 0 12zm-12 -12c4,-3 9,-3 12,0 4,3 4,9 0,12l-12 -12zm6 -7l6 7 -12 12 -6 -7 0 -12 12 0zm-12 12c-4,-3 -4,-9 0,-12 3,-3 8,-3 12,0l-12 12zm35 -23l-23 23 -12 -12 23 -23 14 4 -2 8zm-12 -12c3,-3 8,-3 12,0 3,3 3,9 0,12l-12 -12zm5 -81l15 7 -1 2 -1 2 -1 3 -1 2 0 3 -1 2 -1 3 -1 2 0 2 -1 3 0 2 -1 3 0 2 -1 3 0 2 0 3 0 2 -1 3 0 2 0 3 0 2 0 2 1 3 0 2 0 3 0 2 1 3 0 2 1 2 0 3 1 2 1 3 -16 5 -1 -3 -1 -3 -1 -3 0 -3 -1 -2 0 -3 -1 -3 0 -3 0 -3 -1 -3 0 -3 0 -2 0 -3 0 -3 1 -3 0 -3 0 -3 1 -3 0 -2 0 -3 1 -3 1 -3 0 -3 1 -2 1 -3 1 -3 1 -3 0 -2 1 -3 2 -3 1 -3 1 -2zm0 0c2,-4 7,-6 11,-4 4,1 6,6 4,11l-15 -7zm34 -19c-4,4 -9,4 -12,0 -3,-3 -3,-9 0,-12l12 12zm34 -40l5 16 -1 0 -1 1 -2 0 -1 1 -1 0 -2 1 -1 0 -1 1 -2 1 -1 0 -1 1 -1 1 -2 0 -1 1 -1 1 -1 1 -2 0 -1 1 -1 1 -1 1 -1 1 -2 1 -1 0 -1 1 -1 1 -1 1 -2 1 -1 1 -1 1 -1 1 -1 1 -1 1 -12 -12 1 -1 2 -1 1 -1 1 -2 1 -1 2 -1 1 -1 1 -1 2 -1 1 -1 2 -1 1 -1 1 -1 2 -1 1 -1 2 -1 1 -1 2 -1 1 0 2 -1 1 -1 1 -1 2 -1 2 0 1 -1 2 -1 1 0 2 -1 1 -1 2 0 1 -1 2 0zm0 0c4,-2 9,1 11,5 1,4 -1,9 -6,11l-5 -16z"/>
   <path id="1" class="fil1" d="M331 84l0 0c-3,-3 -6,-4 -10,-4 -3,0 -6,1 -9,4l0 0c-2,3 -4,6 -4,9 0,4 2,7 4,10l0 0 0 0c3,2 6,3 9,3 4,0 7,-1 10,-3l0 0 0 0c2,-3 4,-6 4,-10 0,-3 -2,-6 -4,-9l0 0 0 0zm12 -12c-12,-12 -31,-12 -43,0 -12,12 -12,31 0,43 12,11 31,11 43,0 11,-12 11,-31 0,-43z"/>
  </g>
 </g>
</svg>
