<svg width="640" height="55" viewBox="0 0 640 55" fill="none" xmlns="http://www.w3.org/2000/svg">
<path fill-rule="evenodd" clip-rule="evenodd" d="M160.764 52.8742V49.5765C160.764 48.2888 160.007 47.4722 158.651 47.4722C157.989 47.4722 157.263 47.6921 156.79 48.4144C156.38 47.7863 155.844 47.4722 154.992 47.4722C154.456 47.4722 153.889 47.6292 153.447 48.226V47.5664H152.28V52.8742H153.447V49.9534C153.447 49.0112 153.952 48.5715 154.709 48.5715C155.497 48.5715 155.875 49.074 155.875 49.9534V52.8742H157.042V49.9534C157.042 49.0112 157.61 48.5715 158.336 48.5715C159.092 48.5715 159.502 49.074 159.502 49.9534V52.8742H160.764ZM178.047 47.5664H176.155V45.9647H174.988V47.5664H173.947V48.6343H174.988V51.0526C174.988 52.2775 175.493 52.9998 176.817 52.9998C177.322 52.9998 177.889 52.8114 178.268 52.5916L177.921 51.6179C177.606 51.8378 177.196 51.9006 176.943 51.9006C176.376 51.9006 176.155 51.5551 176.155 50.9898V48.6343H178.047V47.5664ZM187.919 47.4722C187.256 47.4722 186.815 47.7863 186.531 48.226V47.5664H185.364V52.8742H186.531V49.8906C186.531 49.0112 186.941 48.5086 187.666 48.5086C187.887 48.5086 188.14 48.5715 188.36 48.6343L188.707 47.5036C188.486 47.4722 188.14 47.4722 187.919 47.4722ZM173.001 48.0061C172.433 47.6292 171.645 47.4722 170.825 47.4722C169.5 47.4722 168.617 48.1318 168.617 49.1682C168.617 50.0476 169.279 50.5501 170.446 50.7385L170.983 50.7699C171.613 50.8956 171.929 51.0526 171.929 51.3353C171.929 51.7122 171.487 51.9948 170.699 51.9948C169.942 51.9948 169.311 51.7122 168.933 51.4295L168.396 52.3403C168.996 52.78 169.816 52.9998 170.667 52.9998C172.213 52.9998 173.096 52.2775 173.096 51.2725C173.096 50.3302 172.37 49.8277 171.266 49.6707L170.699 49.6079C170.226 49.5765 169.816 49.4509 169.816 49.1368C169.816 48.7285 170.226 48.5086 170.825 48.5086C171.487 48.5086 172.149 48.7913 172.496 48.9483L173.001 48.0061ZM203.972 47.4722C203.31 47.4722 202.868 47.7863 202.584 48.226V47.5664H201.417V52.8742H202.584V49.8906C202.584 49.0112 202.994 48.5086 203.688 48.5086C203.909 48.5086 204.193 48.5715 204.413 48.6343L204.76 47.5036C204.54 47.4722 204.193 47.4722 203.972 47.4722ZM189.086 50.236C189.086 51.8378 190.221 52.9998 191.924 52.9998C192.713 52.9998 193.249 52.8114 193.817 52.3717L193.249 51.4295C192.807 51.775 192.366 51.932 191.861 51.932C190.915 51.932 190.253 51.2725 190.253 50.236C190.253 49.231 190.915 48.5715 191.861 48.5086C192.366 48.5086 192.807 48.6657 193.249 49.0112L193.817 48.0689C193.249 47.6292 192.713 47.4722 191.924 47.4722C190.221 47.4722 189.086 48.6343 189.086 50.236ZM199.872 50.236V47.5664H198.705V48.226C198.327 47.7549 197.759 47.4722 197.033 47.4722C195.551 47.4722 194.384 48.6343 194.384 50.236C194.384 51.8378 195.551 52.9998 197.033 52.9998C197.822 52.9998 198.358 52.7172 198.705 52.2147V52.8742H199.872V50.236ZM195.583 50.236C195.583 49.2938 196.213 48.5086 197.191 48.5086C198.137 48.5086 198.8 49.231 198.8 50.236C198.8 51.1782 198.137 51.932 197.191 51.932C196.213 51.9006 195.583 51.1782 195.583 50.236ZM181.643 47.4722C180.097 47.4722 178.993 48.5715 178.993 50.236C178.993 51.9006 180.097 52.9998 181.706 52.9998C182.494 52.9998 183.251 52.78 183.882 52.2775L183.314 51.4295C182.873 51.775 182.305 51.9948 181.769 51.9948C181.043 51.9948 180.318 51.6808 180.16 50.7385H184.103V50.2674C184.166 48.5715 183.156 47.4722 181.643 47.4722ZM181.643 48.4458C182.368 48.4458 182.873 48.8855 182.999 49.7335H180.223C180.318 49.0112 180.823 48.4458 181.643 48.4458ZM210.595 50.236V45.4622H209.428V48.226C209.018 47.7549 208.482 47.4722 207.757 47.4722C206.243 47.4722 205.076 48.6343 205.076 50.236C205.076 51.8378 206.243 52.9998 207.757 52.9998C208.545 52.9998 209.081 52.7172 209.428 52.2147V52.8742H210.595V50.236ZM206.306 50.236C206.306 49.2938 206.937 48.5086 207.914 48.5086C208.86 48.5086 209.523 49.231 209.523 50.236C209.523 51.1782 208.86 51.932 207.914 51.932C206.937 51.9006 206.306 51.1782 206.306 50.236ZM167.324 50.236V47.5664H166.157V48.226C165.779 47.7549 165.211 47.4722 164.486 47.4722C163.003 47.4722 161.836 48.6343 161.836 50.236C161.836 51.8378 163.003 52.9998 164.486 52.9998C165.274 52.9998 165.842 52.7172 166.157 52.2147V52.8742H167.324V50.236ZM163.003 50.236C163.003 49.2938 163.602 48.5086 164.612 48.5086C165.558 48.5086 166.22 49.231 166.22 50.236C166.22 51.1782 165.558 51.932 164.612 51.932C163.602 51.9006 163.003 51.1782 163.003 50.236Z" fill="black"/>
<path d="M190.095 7.27148H172.591V38.5843H190.095V7.27148Z" fill="#FF5F00"/>
<path fill-rule="evenodd" clip-rule="evenodd" d="M173.726 22.9121C173.726 16.5364 176.722 10.9146 181.327 7.27136C177.921 4.60176 173.663 3 168.996 3C157.925 3 149 11.8882 149 22.9121C149 33.9045 157.925 42.8241 168.996 42.8241C173.663 42.8241 177.921 41.2224 181.327 38.5528C176.722 34.9724 173.726 29.2563 173.726 22.9121Z" fill="#EB001B"/>
<path fill-rule="evenodd" clip-rule="evenodd" d="M213.686 22.9121C213.686 33.9045 204.76 42.8241 193.69 42.8241C189.054 42.8241 184.765 41.2224 181.39 38.5528C186.026 34.9095 188.991 29.2563 188.991 22.9121C188.991 16.5364 185.995 10.9146 181.39 7.27136C184.765 4.60176 189.054 3 193.69 3C204.76 3 213.686 11.951 213.686 22.9121Z" fill="#F79E1B"/>
<path d="M39.9619 22.9924C39.9178 26.4748 43.0595 28.4183 45.4262 29.5736C47.8578 30.7593 48.6745 31.5194 48.6652 32.5795C48.6467 34.2022 46.7255 34.9182 44.9273 34.9461C41.7903 34.9949 39.9666 34.0975 38.5164 33.4187L37.3864 38.7168C38.8412 39.3886 41.5351 39.9744 44.3287 40C50.8857 40 55.1759 36.757 55.1991 31.7287C55.2246 25.3473 46.3891 24.994 46.4494 22.1415C46.4703 21.2767 47.294 20.3538 49.0991 20.119C49.9924 20.0005 52.4589 19.9098 55.2548 21.2L56.3523 16.074C54.8488 15.5254 52.916 15 50.5099 15C44.3379 15 39.9967 18.2871 39.9619 22.9924ZM66.8979 15.4417C65.7006 15.4417 64.6913 16.1414 64.2412 17.2155L54.8743 39.6234H61.4267L62.7307 36.0131H70.7379L71.4943 39.6234H77.2695L72.2299 15.4417H66.8979ZM67.8144 21.9741L69.7054 31.0545H64.5266L67.8144 21.9741ZM32.0173 15.4417L26.8524 39.6234H33.0963L38.2589 15.4417H32.0173ZM22.7804 15.4417L16.2813 31.9007L13.6524 17.9059C13.3438 16.3437 12.1257 15.4417 10.773 15.4417H0.148497L0 16.1438C2.18105 16.618 4.65909 17.3828 6.16031 18.2011C7.07913 18.7009 7.34132 19.138 7.64295 20.3259L12.6222 39.6234H19.2211L29.3374 15.4417H22.7804Z" fill="url(#paint0_linear)"/>
<path fill-rule="evenodd" clip-rule="evenodd" d="M286 47H362.726C365.402 47 367.781 44.9219 368.376 42.5469L374.621 9H297.895C295.516 9 292.84 11.0781 292.543 13.4531L286 47Z" fill="#A32D31"/>
<path d="M292.542 33.6406C293.137 31.8594 293.732 29.7812 294.029 27.4062C294.624 25.0312 294.922 22.6562 295.219 19.9844C295.516 20.2812 295.814 20.2812 296.111 20.2812C296.111 20.2812 296.111 20.2812 296.409 20.2812H296.706C297.003 20.2812 297.003 20.2812 297.301 19.9844C297.003 21.1719 296.706 22.3594 296.409 23.8438L296.111 25.9219C296.409 25.9219 296.706 25.9219 297.301 25.9219C298.49 25.9219 299.085 25.9219 299.382 25.9219C300.275 25.9219 301.464 25.9219 303.248 25.9219H303.546L303.843 23.8438C304.141 22.9531 304.141 22.0625 304.438 21.7656C304.438 21.1719 304.438 20.5781 304.438 19.9844C304.735 20.2812 305.033 20.2812 305.033 20.2812C305.33 20.2812 305.33 20.2812 305.627 20.2812C305.627 20.2812 305.627 20.2812 305.925 20.2812C305.925 20.2812 306.222 20.2812 306.52 19.9844C305.925 22.6562 305.33 25.3281 304.735 27.4062C304.438 29.7812 304.141 31.8594 303.843 33.6406C303.546 33.6406 303.248 33.6406 303.248 33.6406C302.951 33.6406 302.951 33.6406 302.951 33.6406C302.654 33.6406 302.654 33.6406 302.356 33.6406C302.356 33.6406 302.059 33.6406 301.761 33.6406C302.059 32.75 302.356 31.8594 302.356 31.2656C302.654 30.6719 302.654 30.0781 302.654 29.4844L303.248 26.8125C302.654 26.8125 302.059 26.8125 301.167 26.8125C300.572 26.8125 299.977 26.8125 299.68 26.8125C299.085 26.8125 298.49 26.8125 297.895 26.8125C297.301 26.8125 296.409 26.8125 295.814 26.8125L295.516 29.1875C295.219 29.7812 295.219 30.375 294.922 31.2656C294.922 31.8594 294.922 32.75 294.624 33.6406C294.327 33.6406 294.327 33.6406 294.029 33.6406H293.732C293.435 33.6406 293.435 33.6406 293.137 33.6406C293.137 33.6406 292.84 33.6406 292.542 33.6406ZM308.304 20.5781C308.304 20.2812 308.601 20.2812 308.601 19.9844C308.899 19.6875 309.196 19.6875 309.494 19.6875C309.791 19.6875 309.791 19.6875 310.088 19.9844C310.386 19.9844 310.386 20.2812 310.386 20.5781C310.386 20.875 310.386 21.1719 310.088 21.4688C309.791 21.4688 309.791 21.7656 309.494 21.7656C309.196 21.7656 308.899 21.4688 308.601 21.4688C308.601 21.1719 308.304 20.875 308.304 20.5781ZM306.222 33.6406C306.817 31.5625 307.114 29.7812 307.412 28C307.709 26.5156 308.007 25.0312 308.007 24.1406H308.304C308.601 24.1406 308.899 24.1406 308.899 24.1406C309.196 24.1406 309.196 24.1406 309.494 24.1406C309.494 24.1406 309.791 24.1406 310.088 24.1406C309.494 25.9219 308.899 27.7031 308.601 29.4844C308.601 30.9688 308.304 32.4531 308.304 33.6406C308.007 33.6406 307.709 33.6406 307.709 33.6406C307.412 33.6406 307.412 33.6406 307.114 33.6406C307.114 33.6406 307.114 33.6406 306.817 33.6406C306.817 33.6406 306.52 33.6406 306.222 33.6406ZM314.846 32.75C315.739 32.75 316.631 32.1562 317.226 31.2656C317.82 30.375 318.118 29.1875 318.118 27.7031C318.118 26.8125 318.118 26.2188 317.523 25.625C317.226 25.0312 316.631 25.0312 316.036 25.0312C315.144 25.0312 314.252 25.3281 313.657 26.5156C312.765 27.4062 312.467 28.5938 312.467 30.0781C312.467 30.9688 312.765 31.5625 313.062 32.1562C313.36 32.4531 313.954 32.75 314.846 32.75ZM308.899 38.9844C309.494 36.9062 310.088 34.8281 310.386 32.1562C310.98 29.4844 311.575 26.8125 311.873 24.1406C312.17 24.1406 312.17 24.1406 312.467 24.1406C312.467 24.1406 312.467 24.1406 312.765 24.1406H313.062C313.36 24.1406 313.36 24.1406 313.657 24.1406L313.36 25.625C313.657 25.0312 314.252 24.4375 314.846 24.4375C315.441 24.1406 316.036 23.8438 316.631 23.8438C317.523 23.8438 318.415 24.1406 319.01 25.0312C319.605 25.625 319.902 26.5156 319.902 28C319.902 29.4844 319.605 30.9688 318.415 32.1562C317.523 33.3438 316.333 33.9375 314.846 33.9375C314.252 33.9375 313.657 33.6406 313.062 33.3438C312.765 33.0469 312.17 32.4531 312.17 31.8594L311.575 33.9375C311.575 34.2344 311.575 34.2344 311.575 34.5312C311.278 36.3125 310.98 37.7969 310.683 38.9844C310.386 38.9844 310.386 38.9844 310.088 38.9844C310.088 38.9844 310.088 38.9844 309.791 38.9844H309.494C309.196 38.9844 309.196 38.9844 308.899 38.9844ZM322.579 28C322.579 28 322.876 28 323.173 28C324.065 28 324.363 28 324.66 28C324.958 28 325.552 28 326.445 28C326.742 28 327.039 28 327.039 28C327.039 27.7031 327.337 27.7031 327.337 27.4062V27.1094C327.337 26.2188 327.039 25.625 326.742 25.3281C326.445 24.7344 325.85 24.7344 325.255 24.7344C324.66 24.7344 324.065 25.0312 323.471 25.625C323.173 26.2188 322.579 26.8125 322.579 28ZM322.281 28.8906C322.281 28.8906 322.281 29.1875 322.281 29.4844C322.281 29.7812 322.281 29.7812 322.281 30.0781C322.281 30.9688 322.579 31.5625 322.876 32.1562C323.471 32.75 324.065 33.0469 324.958 33.0469C325.255 33.0469 325.85 32.75 326.445 32.4531C326.742 32.4531 327.337 31.8594 327.931 31.5625H328.229C327.931 31.8594 327.931 32.1562 327.931 32.1562C327.634 32.4531 327.634 32.75 327.634 33.0469C327.039 33.3438 326.445 33.6406 326.147 33.6406C325.552 33.9375 324.958 33.9375 324.363 33.9375C323.173 33.9375 322.281 33.6406 321.389 32.75C320.794 32.1562 320.199 30.9688 320.199 29.7812C320.199 28 320.794 26.8125 321.686 25.625C322.876 24.4375 324.065 23.8438 325.552 23.8438C326.445 23.8438 327.337 24.1406 327.931 25.0312C328.526 25.625 328.824 26.5156 328.824 27.7031V28C328.824 28.2969 328.824 28.5938 328.824 28.8906H328.526C327.039 28.8906 325.85 28.8906 325.255 28.8906C325.255 28.8906 324.958 28.8906 324.065 28.8906C323.471 28.8906 322.876 28.8906 322.281 28.8906ZM328.824 33.6406C329.418 31.8594 329.716 30.0781 330.013 28.5938C330.311 26.8125 330.608 25.3281 330.608 24.1406C330.905 24.1406 330.905 24.1406 331.203 24.1406H331.5H331.798C332.095 24.1406 332.095 24.1406 332.392 24.1406C332.392 24.4375 332.095 24.7344 332.095 25.0312C332.095 25.3281 332.095 25.625 332.095 25.9219C332.392 25.3281 332.987 24.7344 333.284 24.4375C333.879 24.1406 334.474 23.8438 334.771 23.8438H335.069C335.069 23.8438 335.069 24.1406 335.366 24.1406C335.366 24.4375 335.069 24.7344 335.069 24.7344C335.069 25.0312 335.069 25.3281 335.069 25.625C334.771 25.625 334.771 25.625 334.474 25.625H334.177C333.284 25.625 332.392 26.2188 332.095 27.1094C331.5 28.2969 331.203 30.375 330.905 33.6406C330.608 33.6406 330.311 33.6406 330.311 33.6406C330.013 33.6406 330.013 33.6406 329.716 33.6406C329.716 33.6406 329.716 33.6406 329.418 33.6406C329.418 33.6406 329.121 33.6406 328.824 33.6406ZM341.909 33.0469C341.314 33.3438 340.719 33.6406 340.422 33.6406C339.827 33.9375 339.232 33.9375 338.935 33.9375C337.745 33.9375 336.556 33.6406 335.961 32.75C335.069 31.8594 334.771 30.9688 334.771 29.7812C334.771 28 335.069 26.8125 336.258 25.625C337.15 24.4375 338.637 23.8438 340.124 23.8438C340.719 23.8438 341.314 24.1406 341.909 24.1406C342.503 24.1406 342.801 24.4375 343.396 24.7344C343.098 25.0312 343.098 25.3281 343.098 25.625C342.801 25.9219 342.801 26.2188 342.801 26.5156H342.503C342.206 25.9219 341.909 25.3281 341.611 25.0312C341.016 24.7344 340.719 24.7344 340.124 24.7344C339.232 24.7344 338.34 25.3281 337.448 26.2188C336.853 27.1094 336.556 28.2969 336.556 29.7812C336.556 30.9688 336.853 31.5625 337.15 32.1562C337.745 32.75 338.34 33.0469 339.232 33.0469C339.827 33.0469 340.124 32.75 340.719 32.4531C341.314 32.4531 341.611 32.1562 341.909 31.5625L342.206 31.8594C342.206 32.1562 342.206 32.1562 341.909 32.4531C341.909 32.75 341.909 32.75 341.909 33.0469ZM347.856 32.4531C347.262 32.75 346.964 33.3438 346.369 33.3438C346.072 33.6406 345.477 33.9375 344.883 33.9375C344.288 33.9375 343.693 33.6406 343.098 33.3438C342.801 32.75 342.503 32.1562 342.503 31.5625C342.503 30.6719 342.801 29.7812 343.396 29.4844C343.99 28.8906 344.883 28.5938 346.369 28.2969L348.154 28C348.451 28 348.451 27.7031 348.749 27.4062C348.749 27.1094 348.749 26.8125 348.749 26.2188C348.749 25.625 348.749 25.3281 348.451 25.0312C348.154 24.7344 347.856 24.7344 347.262 24.7344C346.667 24.7344 346.072 24.7344 345.775 25.0312C345.18 25.3281 344.883 25.625 344.585 26.2188H344.288C344.288 25.9219 344.288 25.9219 344.288 25.625C344.288 25.3281 344.288 25.3281 344.288 25.0312C344.288 24.7344 344.288 24.7344 344.288 24.7344C344.883 24.4375 345.477 24.1406 345.775 24.1406C346.369 23.8438 346.964 23.8438 347.262 23.8438C348.451 23.8438 349.046 24.1406 349.641 24.4375C350.235 25.0312 350.235 25.625 350.235 26.2188C350.235 26.5156 350.235 26.8125 350.235 27.1094C350.235 27.4062 350.235 27.7031 350.235 28.2969L349.343 31.5625C349.343 31.8594 349.343 31.8594 349.343 31.8594C349.343 32.1562 349.343 32.1562 349.343 32.4531C349.343 32.4531 349.343 32.75 349.641 32.75C349.641 32.75 349.641 33.0469 349.938 33.0469H350.235C350.235 32.75 350.533 32.75 350.533 32.75L350.83 33.3438C350.533 33.3438 350.235 33.6406 349.938 33.6406C349.641 33.6406 349.343 33.9375 349.046 33.9375C348.749 33.9375 348.451 33.6406 348.154 33.3438C347.856 33.0469 347.856 32.75 347.856 32.4531ZM348.451 28.5938L346.667 28.8906C345.775 29.1875 345.18 29.4844 344.883 29.7812C344.288 30.375 344.288 30.6719 344.288 31.2656C344.288 31.8594 344.288 32.1562 344.585 32.4531C344.883 32.75 345.18 32.75 345.477 32.75C346.072 32.75 346.667 32.4531 347.262 32.1562C347.559 31.8594 347.856 31.2656 347.856 30.6719L348.451 28.5938ZM351.128 33.6406C351.722 31.8594 352.02 30.0781 352.317 28.5938C352.615 26.8125 352.615 25.3281 352.912 24.1406H353.209C353.507 24.1406 353.507 24.1406 353.804 24.1406C353.804 24.1406 353.804 24.1406 354.101 24.1406C354.101 24.1406 354.399 24.1406 354.696 24.1406C354.399 24.4375 354.399 24.7344 354.399 25.0312C354.399 25.3281 354.101 25.625 354.101 25.9219C354.696 25.3281 354.994 24.7344 355.588 24.4375C356.183 24.1406 356.481 23.8438 357.075 23.8438C357.373 23.8438 357.373 24.1406 357.373 24.1406C357.373 24.4375 357.373 24.7344 357.373 24.7344C357.373 25.0312 357.373 25.3281 357.075 25.625H356.778C356.481 25.625 356.481 25.625 356.183 25.625C355.291 25.625 354.696 26.2188 354.101 27.1094C353.804 28.2969 353.209 30.375 352.912 33.6406C352.912 33.6406 352.615 33.6406 352.317 33.6406H352.02H351.722C351.722 33.6406 351.425 33.6406 351.128 33.6406ZM363.618 32.1562C363.32 32.75 362.726 33.3438 362.131 33.3438C361.536 33.6406 360.941 33.9375 360.347 33.9375C359.454 33.9375 358.562 33.6406 357.968 32.75C357.373 32.1562 357.075 30.9688 357.075 29.7812C357.075 28.2969 357.373 26.8125 358.562 25.625C359.454 24.4375 360.644 23.8438 362.131 23.8438C362.726 23.8438 363.32 24.1406 363.915 24.4375C364.213 24.7344 364.807 25.3281 364.807 25.9219L365.402 23.8438C365.402 22.6562 365.7 21.7656 365.997 21.1719C365.997 20.2812 365.997 19.3906 366.294 18.7969C366.592 18.7969 366.592 18.7969 366.889 18.7969C366.889 18.7969 366.889 18.7969 367.187 18.7969H367.484C367.781 18.7969 368.079 18.7969 368.079 18.7969C367.484 21.1719 366.889 23.5469 366.294 26.2188C365.997 28.5938 365.402 31.2656 365.105 33.6406C364.807 33.6406 364.807 33.6406 364.51 33.6406C364.51 33.6406 364.51 33.6406 364.213 33.6406H363.915C363.618 33.6406 363.618 33.6406 363.32 33.6406L363.618 32.1562ZM362.131 25.0312C361.239 25.0312 360.347 25.625 359.752 26.5156C359.157 27.4062 358.86 28.8906 358.86 30.0781C358.86 30.9688 358.86 31.8594 359.454 32.1562C359.752 32.75 360.049 32.75 360.941 32.75C361.834 32.75 362.726 32.4531 363.32 31.2656C364.213 30.375 364.51 29.1875 364.51 27.7031C364.51 26.8125 364.213 26.2188 363.915 25.625C363.618 25.3281 363.023 25.0312 362.131 25.0312Z" fill="white"/>
<circle cx="617.5" cy="27.5" r="22.5" fill="black"/>
<path d="M600.078 31.9503C599.915 31.6875 599.697 31.2677 599.562 30.9569C598.777 29.1365 598.742 27.2521 599.402 25.4446C600.13 23.4609 601.521 21.945 603.319 21.1695C605.579 20.1984 608.075 20.3875 610.242 21.6726C611.617 22.461 612.592 23.6788 613.332 25.403C613.425 25.6241 613.508 25.8581 613.592 26.06L600.078 31.9503ZM604.591 24.0954C602.985 24.7845 602.159 26.2907 602.332 28.0533L609.127 25.1274C607.957 23.7557 606.438 23.3007 604.591 24.0954ZM609.973 30.4601C609.97 30.4601 609.97 30.4633 609.97 30.4633L609.829 30.3672C609.422 31.0242 608.79 31.5594 607.992 31.9055C606.473 32.5656 605.066 32.3958 604.053 31.5081L603.96 31.6491C603.96 31.6491 603.96 31.6459 603.957 31.6459L602.232 34.2257C602.662 34.5238 603.12 34.7737 603.601 34.9756C605.505 35.7672 607.454 35.7288 609.374 34.8955C610.762 34.293 611.851 33.3765 612.595 32.2131L609.973 30.4601Z" fill="white"/>
<path d="M618.313 17.375V31.7131L620.544 32.6169L619.278 35.5717L616.816 34.5462C616.265 34.3058 615.887 33.9405 615.605 33.527C615.332 33.1072 615.13 32.5272 615.13 31.7516V17.375H618.313Z" fill="white"/>
<path d="M624.089 28.0629C624.089 26.8419 624.631 25.7459 625.483 25.0024L623.195 22.4514C621.644 23.823 620.666 25.826 620.666 28.0565C620.663 30.2902 621.64 32.2964 623.188 33.6681L625.474 31.1171C624.624 30.3703 624.089 29.2807 624.089 28.0629Z" fill="#00A4E0"/>
<path d="M628.154 32.1297C627.705 32.1297 627.269 32.0528 626.865 31.9182L625.772 35.1646C626.519 35.4146 627.317 35.5524 628.15 35.5524C631.772 35.5556 634.795 32.9854 635.497 29.5723L632.138 28.8865C631.756 30.742 630.118 32.1329 628.154 32.1297Z" fill="#EF4123"/>
<path d="M628.163 20.5734C627.333 20.5734 626.535 20.708 625.788 20.9547L626.871 24.2044C627.278 24.0698 627.711 23.9961 628.16 23.9961C630.128 23.9993 631.769 25.3965 632.141 27.2553L635.5 26.5759C634.811 23.1564 631.788 20.5766 628.163 20.5734Z" fill="#FFCB05"/>
<path d="M489.715 29.4833C497.81 29.5226 505.199 22.9119 505.199 14.8697C505.199 6.07587 497.81 -0.00252017 489.715 7.83863e-07H482.749C474.557 -0.00252017 467.814 6.07731 467.814 14.8697C467.814 22.9137 474.557 29.5226 482.749 29.4833H489.715Z" fill="#006095"/>
<path d="M485.856 22.7005V6.73172C489.08 7.96303 491.369 11.0706 491.375 14.7156C491.369 18.3613 489.08 21.4671 485.856 22.7005ZM474.191 14.7156C474.198 11.0728 476.483 7.96699 479.706 6.73208V22.6973C476.483 21.4635 474.198 18.3595 474.191 14.7156ZM482.781 1.21875C475.296 1.22127 469.23 7.26148 469.228 14.7156C469.23 22.169 475.296 28.2081 482.781 28.2103C490.269 28.2081 496.336 22.169 496.337 14.7156C496.336 7.26148 490.269 1.22127 482.781 1.21875Z" fill="white"/>
<path d="M451.449 36.5009C451.449 35.1064 450.718 35.1979 450.018 35.1831V34.7801C450.625 34.8097 451.247 34.8097 451.856 34.8097C452.509 34.8097 453.397 34.7801 454.55 34.7801C458.583 34.7801 460.779 37.4617 460.779 40.2078C460.779 41.743 459.876 45.6037 454.363 45.6037C453.569 45.6037 452.836 45.5731 452.104 45.5731C451.404 45.5731 450.718 45.5879 450.018 45.6037V45.2003C450.951 45.1071 451.404 45.0761 451.449 44.0216V36.5009ZM452.976 43.7738C452.976 44.9677 453.833 45.1071 454.596 45.1071C457.96 45.1071 459.065 42.5796 459.065 40.269C459.065 37.3703 457.196 35.2771 454.191 35.2771C453.551 35.2771 453.257 35.3225 452.976 35.3391V43.7738ZM461.325 45.2007H461.621C462.056 45.2007 462.368 45.2007 462.368 44.6879V40.4865C462.368 39.8048 462.135 39.7101 461.558 39.4018V39.1533C462.29 38.935 463.163 38.6419 463.224 38.5954C463.334 38.5335 463.427 38.5169 463.505 38.5169C463.582 38.5169 463.614 38.6102 463.614 38.7352V44.6879C463.614 45.2007 463.957 45.2007 464.393 45.2007H464.657V45.6041C464.127 45.6041 463.582 45.5731 463.023 45.5731C462.462 45.5731 461.901 45.5882 461.325 45.6041V45.2007ZM462.992 36.1296C462.586 36.1296 462.228 35.7576 462.228 35.3542C462.228 34.966 462.603 34.6084 462.992 34.6084C463.395 34.6084 463.754 34.9354 463.754 35.3542C463.754 35.7734 463.411 36.1296 462.992 36.1296ZM466.137 40.5791C466.137 40.0057 465.965 39.8512 465.235 39.5566V39.262C465.903 39.0452 466.541 38.8429 467.29 38.5169C467.336 38.5169 467.382 38.5486 467.382 38.6718V39.6802C468.271 39.0452 469.034 38.5169 470.079 38.5169C471.402 38.5169 471.869 39.4785 471.869 40.6882V44.6879C471.869 45.2007 472.211 45.2007 472.648 45.2007H472.928V45.6041C472.382 45.6041 471.837 45.5731 471.277 45.5731C470.716 45.5731 470.155 45.5882 469.595 45.6041V45.2007H469.875C470.312 45.2007 470.622 45.2007 470.622 44.6879V40.6731C470.622 39.7882 470.079 39.355 469.19 39.355C468.692 39.355 467.897 39.7576 467.382 40.099V44.6879C467.382 45.2007 467.726 45.2007 468.163 45.2007H468.443V45.6041C467.897 45.6041 467.352 45.5731 466.791 45.5731C466.231 45.5731 465.669 45.5882 465.109 45.6041V45.2007H465.39C465.826 45.2007 466.137 45.2007 466.137 44.6879V40.5791ZM474.112 41.3246C474.08 41.4643 474.08 41.6962 474.112 42.2238C474.204 43.6964 475.156 44.9054 476.4 44.9054C477.258 44.9054 477.929 44.4401 478.504 43.8671L478.722 44.0843C478.005 45.0304 477.117 45.8363 475.841 45.8363C473.364 45.8363 472.866 43.4479 472.866 42.4561C472.866 39.4165 474.921 38.5169 476.01 38.5169C477.273 38.5169 478.629 39.3074 478.643 40.9511C478.643 41.0454 478.643 41.1373 478.629 41.2313L478.488 41.3246H474.112ZM476.869 40.8279C477.258 40.8279 477.304 40.6259 477.304 40.4401C477.304 39.6496 476.821 39.0139 475.949 39.0139C474.999 39.0139 474.345 39.7101 474.158 40.8279H476.869ZM479.002 45.2007H479.423C479.857 45.2007 480.169 45.2007 480.169 44.6879V40.3317C480.169 39.8512 479.594 39.7576 479.36 39.6337V39.4018C480.497 38.9206 481.12 38.5169 481.262 38.5169C481.353 38.5169 481.4 38.5634 481.4 38.7193V40.1145H481.433C481.821 39.5098 482.476 38.5169 483.426 38.5169C483.815 38.5169 484.313 38.7802 484.313 39.3388C484.313 39.7576 484.018 40.1307 483.582 40.1307C483.097 40.1307 483.097 39.7576 482.553 39.7576C482.288 39.7576 481.416 40.1145 481.416 41.0454V44.6879C481.416 45.2007 481.727 45.2007 482.163 45.2007H483.035V45.6041C482.178 45.5882 481.526 45.5731 480.856 45.5731C480.217 45.5731 479.563 45.5882 479.002 45.6041V45.2007ZM484.998 43.4479C485.201 44.4711 485.824 45.3401 486.961 45.3401C487.879 45.3401 488.221 44.7819 488.221 44.2395C488.221 42.4093 484.827 42.9981 484.827 40.5024C484.827 39.6334 485.529 38.5169 487.241 38.5169C487.739 38.5169 488.408 38.657 489.015 38.9675L489.125 40.5477H488.767C488.611 39.5718 488.067 39.0136 487.069 39.0136C486.446 39.0136 485.855 39.3701 485.855 40.0367C485.855 41.8522 489.468 41.2929 489.468 43.727C489.468 44.7502 488.642 45.8367 486.789 45.8367C486.166 45.8367 485.434 45.6192 484.889 45.3095L484.717 43.5261L484.998 43.4479ZM503.531 37.5863H503.143C502.846 35.7734 501.553 35.0438 499.81 35.0438C498.018 35.0438 495.416 36.2373 495.416 39.9586C495.416 43.0925 497.661 45.3401 500.058 45.3401C501.6 45.3401 502.878 44.286 503.19 42.6571L503.547 42.75L503.19 45.0138C502.535 45.4182 500.775 45.8363 499.747 45.8363C496.103 45.8363 493.799 43.4947 493.799 40.0057C493.799 36.8268 496.648 34.5468 499.701 34.5468C500.962 34.5468 502.177 34.9512 503.376 35.3701L503.531 37.5863ZM504.093 45.2007H504.387C504.825 45.2007 505.136 45.2007 505.136 44.6879V36.0525C505.136 35.0438 504.903 35.0128 504.311 34.8425V34.5943C504.934 34.393 505.588 34.1139 505.915 33.927C506.085 33.8348 506.21 33.7559 506.256 33.7559C506.351 33.7559 506.383 33.8499 506.383 33.9742V44.6879C506.383 45.2007 506.725 45.2007 507.161 45.2007H507.424V45.6041C506.897 45.6041 506.351 45.5731 505.79 45.5731C505.23 45.5731 504.67 45.5882 504.093 45.6041V45.2007ZM514.093 44.7502C514.093 45.0304 514.263 45.0451 514.528 45.0451C514.715 45.0451 514.948 45.0304 515.151 45.0304V45.3566C514.48 45.4182 513.204 45.7438 512.908 45.8367L512.829 45.7899V44.5344C511.896 45.294 511.179 45.8367 510.072 45.8367C509.231 45.8367 508.359 45.294 508.359 43.9921V40.0216C508.359 39.6182 508.298 39.2304 507.426 39.1533V38.8583C507.988 38.8432 509.232 38.7503 509.435 38.7503C509.607 38.7503 509.607 38.8583 509.607 39.1997V43.1994C509.607 43.6654 509.607 44.9987 510.961 44.9987C511.491 44.9987 512.191 44.5957 512.845 44.054V39.8811C512.845 39.5718 512.098 39.4018 511.538 39.2466V38.9675C512.938 38.8738 513.812 38.7503 513.967 38.7503C514.093 38.7503 514.093 38.8583 514.093 39.0298V44.7502ZM517.191 39.6337C517.814 39.1065 518.655 38.5169 519.512 38.5169C521.319 38.5169 522.408 40.0842 522.408 41.7736C522.408 43.8048 520.914 45.8367 518.685 45.8367C517.534 45.8367 516.926 45.464 516.521 45.294L516.054 45.6498L515.728 45.4798C515.866 44.5651 515.946 43.6654 515.946 42.7197V36.0525C515.946 35.0438 515.711 35.0128 515.12 34.8425V34.5943C515.744 34.393 516.396 34.1139 516.724 33.927C516.895 33.8348 517.019 33.7559 517.067 33.7559C517.161 33.7559 517.191 33.8499 517.191 33.9742V39.6337ZM517.191 43.8509C517.191 44.4401 517.752 45.4337 518.795 45.4337C520.462 45.4337 521.162 43.8048 521.162 42.424C521.162 40.7498 519.887 39.355 518.671 39.355C518.094 39.355 517.612 39.7273 517.191 40.0842V43.8509ZM450 54.6194H450.119C450.424 54.6194 450.746 54.5783 450.746 54.1389V49.719C450.746 49.2789 450.424 49.2371 450.119 49.2371H450V48.9839C450.331 48.9839 450.839 49.0171 451.256 49.0171C451.679 49.0171 452.187 48.9839 452.585 48.9839V49.2371H452.466C452.162 49.2371 451.839 49.2789 451.839 49.719V54.1389C451.839 54.5783 452.162 54.6194 452.466 54.6194H452.585V54.8736C452.178 54.8736 451.669 54.8405 451.246 54.8405C450.831 54.8405 450.331 54.8736 450 54.8736V54.6194ZM458.407 53.2105L458.424 53.1939V50.0305C458.424 49.3383 457.94 49.2371 457.687 49.2371H457.5V48.9839C457.898 48.9839 458.288 49.0174 458.686 49.0174C459.034 49.0174 459.382 48.9839 459.729 48.9839V49.2371H459.603C459.246 49.2371 458.847 49.3048 458.847 50.3085V54.1483C458.847 54.4433 458.856 54.7382 458.898 54.9997H458.576L454.212 50.1562V53.6329C454.212 54.3669 454.355 54.6194 455.008 54.6194H455.152V54.8736C454.788 54.8736 454.424 54.8405 454.059 54.8405C453.679 54.8405 453.288 54.8736 452.907 54.8736V54.6194H453.025C453.61 54.6194 453.788 54.2236 453.788 53.5494V49.9956C453.788 49.5238 453.397 49.2371 453.017 49.2371H452.907V48.9839C453.228 48.9839 453.559 49.0174 453.88 49.0174C454.135 49.0174 454.381 48.9839 454.635 48.9839L458.407 53.2105ZM460.998 49.4057C460.361 49.4057 460.338 49.5576 460.21 50.1728H459.956C459.989 49.9369 460.032 49.701 460.058 49.4557C460.092 49.2191 460.109 48.9839 460.109 48.7394H460.312C460.38 48.9929 460.592 48.9839 460.822 48.9839H465.193C465.423 48.9839 465.634 48.9757 465.652 48.7221L465.854 48.756C465.821 48.9839 465.787 49.2112 465.761 49.4395C465.745 49.6675 465.745 49.8954 465.745 50.1227L465.491 50.2163C465.473 49.9044 465.431 49.4057 464.863 49.4057H463.474V53.8944C463.474 54.5452 463.771 54.6194 464.176 54.6194H464.337V54.8736C464.007 54.8736 463.414 54.8405 462.957 54.8405C462.448 54.8405 461.855 54.8736 461.524 54.8736V54.6194H461.685C462.152 54.6194 462.388 54.5779 462.388 53.9121V49.4057H460.998ZM466.125 54.6194H466.244C466.549 54.6194 466.871 54.5783 466.871 54.1389V49.719C466.871 49.2789 466.549 49.2371 466.244 49.2371H466.125V48.9839C466.641 48.9839 467.524 49.0171 468.234 49.0171C468.947 49.0171 469.827 48.9839 470.403 48.9839C470.389 49.3462 470.397 49.9041 470.422 50.275L470.166 50.3427C470.125 49.7946 470.024 49.356 469.133 49.356H467.957V51.5658H468.964C469.472 51.5658 469.583 51.2798 469.633 50.8232H469.887C469.87 51.153 469.862 51.4818 469.862 51.8103C469.862 52.1319 469.87 52.4521 469.887 52.7726L469.633 52.8226C469.583 52.317 469.557 51.9878 468.972 51.9878H467.957V53.9535C467.957 54.502 468.446 54.502 468.989 54.502C470.006 54.502 470.455 54.4339 470.71 53.4734L470.946 53.5314C470.836 53.9798 470.734 54.4256 470.659 54.8736C470.116 54.8736 469.141 54.8405 468.38 54.8405C467.616 54.8405 466.608 54.8736 466.125 54.8736V54.6194ZM472.09 49.8778C472.09 49.2623 471.751 49.2371 471.488 49.2371H471.335V48.9836C471.607 48.9836 472.132 49.0174 472.649 49.0174C473.157 49.0174 473.564 48.9836 474.013 48.9836C475.08 48.9836 476.03 49.2702 476.03 50.4695C476.03 51.2276 475.522 51.6918 474.853 51.9547L476.301 54.113C476.539 54.4699 476.708 54.57 477.124 54.619V54.8736C476.844 54.8736 476.572 54.8405 476.293 54.8405C476.03 54.8405 475.758 54.8736 475.497 54.8736C474.844 54.0215 474.284 53.1104 473.733 52.1387H473.175V53.9452C473.175 54.5956 473.48 54.619 473.869 54.619H474.022V54.8736C473.538 54.8736 473.048 54.8405 472.564 54.8405C472.157 54.8405 471.759 54.8736 471.335 54.8736V54.619H471.488C471.803 54.619 472.09 54.4775 472.09 54.1649V49.8778ZM473.175 51.8348H473.589C474.437 51.8348 474.894 51.515 474.894 50.5188C474.894 49.769 474.411 49.2879 473.656 49.2879C473.402 49.2879 473.293 49.3138 473.175 49.3214V51.8348ZM482.877 53.2105L482.892 53.1939V50.0305C482.892 49.3383 482.41 49.2371 482.156 49.2371H481.97V48.9839C482.368 48.9839 482.757 49.0174 483.156 49.0174C483.504 49.0174 483.85 48.9839 484.2 48.9839V49.2371H484.072C483.717 49.2371 483.318 49.3048 483.318 50.3085V54.1483C483.318 54.4433 483.326 54.7382 483.368 54.9997H483.047L478.683 50.1562V53.6329C478.683 54.3669 478.826 54.6194 479.479 54.6194H479.623V54.8736C479.259 54.8736 478.894 54.8405 478.53 54.8405C478.148 54.8405 477.758 54.8736 477.377 54.8736V54.6194H477.495C478.08 54.6194 478.258 54.2236 478.258 53.5494V49.9956C478.258 49.5238 477.868 49.2371 477.487 49.2371H477.377V48.9839C477.698 48.9839 478.03 49.0174 478.352 49.0174C478.604 49.0174 478.851 48.9839 479.106 48.9839L482.877 53.2105ZM485.563 53.6672C485.477 53.9535 485.375 54.1742 485.375 54.3248C485.375 54.5783 485.731 54.6194 486.01 54.6194H486.105V54.8736C485.765 54.8552 485.419 54.8408 485.077 54.8408C484.773 54.8408 484.47 54.8552 484.163 54.8736V54.6194H484.215C484.545 54.6194 484.825 54.4256 484.95 54.0705L486.308 50.1994C486.417 49.8872 486.571 49.4651 486.622 49.1518C486.892 49.0603 487.231 48.8917 487.392 48.7902C487.418 48.7812 487.433 48.7725 487.46 48.7725C487.485 48.7725 487.501 48.7725 487.52 48.7985C487.545 48.8658 487.569 48.9418 487.597 49.0091L489.156 53.4223C489.257 53.7172 489.358 54.0291 489.468 54.2833C489.57 54.5196 489.748 54.6194 490.028 54.6194H490.079V54.8736C489.698 54.8552 489.316 54.8408 488.91 54.8408C488.495 54.8408 488.07 54.8552 487.638 54.8736V54.6194H487.732C487.926 54.6194 488.257 54.5866 488.257 54.3752C488.257 54.2661 488.181 54.0385 488.086 53.7676L487.757 52.7891H485.833L485.563 53.6672ZM486.799 49.9289H486.782L485.994 52.317H487.578L486.799 49.9289ZM490.452 49.4057C489.816 49.4057 489.791 49.5576 489.663 50.1728H489.409C489.442 49.9369 489.485 49.701 489.511 49.4557C489.545 49.2191 489.561 48.9839 489.561 48.7394H489.765C489.833 48.9929 490.045 48.9839 490.273 48.9839H494.647C494.875 48.9839 495.086 48.9757 495.103 48.7221L495.306 48.756C495.274 48.9839 495.24 49.2112 495.215 49.4395C495.196 49.6675 495.196 49.8954 495.196 50.1227L494.942 50.2163C494.927 49.9044 494.884 49.4057 494.316 49.4057H492.926V53.8944C492.926 54.5452 493.223 54.6194 493.629 54.6194H493.79V54.8736C493.46 54.8736 492.867 54.8405 492.409 54.8405C491.902 54.8405 491.307 54.8736 490.977 54.8736V54.6194H491.138C491.605 54.6194 491.841 54.5779 491.841 53.9121V49.4057H490.452ZM495.619 54.6194H495.738C496.044 54.6194 496.364 54.5783 496.364 54.1389V49.719C496.364 49.2789 496.044 49.2371 495.738 49.2371H495.619V48.9839C495.95 48.9839 496.458 49.0171 496.872 49.0171C497.297 49.0171 497.806 48.9839 498.204 48.9839V49.2371H498.086C497.78 49.2371 497.458 49.2789 497.458 49.719V54.1389C497.458 54.5783 497.78 54.6194 498.086 54.6194H498.204V54.8736C497.797 54.8736 497.289 54.8405 496.865 54.8405C496.449 54.8405 495.95 54.8736 495.619 54.8736V54.6194ZM501.584 48.8579C503.391 48.8579 504.83 49.9722 504.83 51.7692C504.83 53.71 503.432 55 501.628 55C499.83 55 498.458 53.7853 498.458 51.9713C498.458 50.2167 499.822 48.8579 501.584 48.8579ZM501.712 54.6287C503.356 54.6287 503.643 53.1849 503.643 51.9551C503.643 50.7212 502.975 49.2285 501.568 49.2285C500.084 49.2285 499.644 50.5451 499.644 51.6745C499.644 53.1849 500.339 54.6287 501.712 54.6287ZM510.541 53.2105L510.558 53.1939V50.0305C510.558 49.3383 510.074 49.2371 509.82 49.2371H509.636V48.9839C510.033 48.9839 510.423 49.0174 510.82 49.0174C511.169 49.0174 511.516 48.9839 511.864 48.9839V49.2371H511.736C511.381 49.2371 510.982 49.3048 510.982 50.3085V54.1483C510.982 54.4433 510.99 54.7382 511.033 54.9997H510.711L506.346 50.1562V53.6329C506.346 54.3669 506.49 54.6194 507.142 54.6194H507.287V54.8736C506.922 54.8736 506.559 54.8405 506.194 54.8405C505.813 54.8405 505.422 54.8736 505.04 54.8736V54.6194H505.16C505.746 54.6194 505.922 54.2236 505.922 53.5494V49.9956C505.922 49.5238 505.534 49.2371 505.151 49.2371H505.04V48.9839C505.363 48.9839 505.694 49.0174 506.015 49.0174C506.269 49.0174 506.514 48.9839 506.769 48.9839L510.541 53.2105ZM513.226 53.6672C513.142 53.9535 513.04 54.1742 513.04 54.3248C513.04 54.5783 513.397 54.6194 513.674 54.6194H513.769V54.8736C513.43 54.8552 513.082 54.8408 512.743 54.8408C512.437 54.8408 512.133 54.8552 511.829 54.8736V54.6194H511.877C512.209 54.6194 512.49 54.4256 512.615 54.0705L513.973 50.1994C514.083 49.8872 514.236 49.4651 514.285 49.1518C514.557 49.0603 514.895 48.8917 515.058 48.7902C515.082 48.7812 515.099 48.7725 515.125 48.7725C515.15 48.7725 515.166 48.7725 515.183 48.7985C515.209 48.8658 515.235 48.9418 515.261 49.0091L516.819 53.4223C516.921 53.7172 517.022 54.0291 517.133 54.2833C517.235 54.5196 517.414 54.6194 517.692 54.6194H517.744V54.8736C517.362 54.8552 516.981 54.8408 516.573 54.8408C516.159 54.8408 515.734 54.8552 515.302 54.8736V54.6194H515.396C515.589 54.6194 515.922 54.5866 515.922 54.3752C515.922 54.2661 515.845 54.0385 515.751 53.7676L515.422 52.7891H513.498L513.226 53.6672ZM514.464 49.9289H514.447L513.658 52.317H515.244L514.464 49.9289ZM519.879 54.0464C519.879 54.3845 520.115 54.485 520.386 54.5196C520.734 54.5452 521.115 54.5452 521.506 54.5023C521.861 54.4598 522.166 54.2578 522.319 54.0464C522.454 53.8605 522.53 53.6247 522.581 53.4388H522.827C522.734 53.9196 522.615 54.3932 522.513 54.8736C521.769 54.8736 521.021 54.8408 520.277 54.8408C519.53 54.8408 518.785 54.8736 518.039 54.8736V54.6194H518.156C518.463 54.6194 518.794 54.5783 518.794 54.0547V49.7186C518.794 49.2789 518.463 49.2371 518.156 49.2371H518.039V48.9839C518.488 48.9839 518.929 49.0174 519.377 49.0174C519.811 49.0174 520.234 48.9839 520.667 48.9839V49.2371H520.453C520.132 49.2371 519.879 49.2465 519.879 49.6927V54.0464Z" fill="#1A1918"/>
<defs>
<linearGradient id="paint0_linear" x1="35.524" y1="40.5015" x2="36.249" y2="14.8262" gradientUnits="userSpaceOnUse">
<stop stop-color="#222357"/>
<stop offset="1" stop-color="#254AA5"/>
</linearGradient>
</defs>
</svg>
