<?xml version="1.0" encoding="UTF-8"?>
<!DOCTYPE svg PUBLIC "-//W3C//DTD SVG 1.0//EN" "http://www.w3.org/TR/2001/REC-SVG-20010904/DTD/svg10.dtd">
<!-- Creator: CorelDRAW X7 -->
<svg xmlns="http://www.w3.org/2000/svg" xml:space="preserve" width="3.9794mm" height="3.9794mm" version="1.0" style="shape-rendering:geometricPrecision; text-rendering:geometricPrecision; image-rendering:optimizeQuality; fill-rule:evenodd; clip-rule:evenodd"
viewBox="0 0 398 398"
 xmlns:xlink="http://www.w3.org/1999/xlink">
 <defs>
  <style type="text/css">
   <![CDATA[
    .fil0 {fill:none}
    .fil1 {fill:#FFB47F;fill-rule:nonzero}
   ]]>
  </style>
 </defs>
 <g id="Camada_x0020_1">
  <metadata id="CorelCorpID_0Corel-Layer"/>
  <rect class="fil0" width="398" height="398"/>
  <g>
   <path class="fil1" d="M190 236c4,-3 9,-3 12,0l-12 0zm0 0c4,-3 9,-3 12,0l-12 0zm118 -117c5,0 9,4 9,9 0,4 -4,8 -9,8l-10 0c-2,0 -5,1 -6,3 -2,2 -3,4 -3,7 0,4 -4,8 -9,8 -4,0 -8,-4 -8,-8 0,-8 3,-14 8,-19 4,-5 11,-8 18,-8l10 0zm-128 -11c-2,0 -4,0 -6,0 -8,0 -15,-2 -21,-7l-1 0c-5,-5 -10,-11 -12,-18 -1,-5 2,-9 6,-11 5,-1 10,2 11,6 1,4 3,7 6,10l0 0c3,2 7,3 11,3 1,0 3,0 4,0l0 0 0 0 2 -1 -6 -20 -36 0c-4,0 -8,-4 -8,-9l0 0c0,-14 6,-27 15,-36 9,-9 21,-14 35,-14 14,0 27,5 36,14 9,10 15,22 15,36 0,12 -4,22 -11,31 0,1 -1,2 -2,3 5,4 11,11 15,19 8,13 14,29 18,46 2,7 3,14 4,20 0,7 1,13 0,19l0 0 0 0 0 29 19 0c-2,-3 -2,-6 -2,-9l0 -48c0,-5 4,-9 8,-9 5,0 9,4 9,9l0 48c0,3 1,5 3,7l0 0c1,1 3,2 6,2l0 0 0 0 29 0 0 0 45 0c2,0 5,-1 6,-2l0 0c2,-2 3,-4 3,-7l0 -73c0,-3 -1,-5 -3,-7l0 0c-1,-2 -4,-3 -6,-3l-25 0c-5,0 -9,-4 -9,-8 0,-5 4,-9 9,-9l25 0c7,0 13,3 18,8l0 0c5,5 8,11 8,19l0 73c0,7 -3,14 -8,19l0 0c-5,4 -11,7 -18,7l-35 0 18 92c1,4 -2,9 -6,10 -1,0 -2,0 -2,0l0 0 -23 0c-2,10 -6,19 -13,26l0 0 0 0 0 0c-9,9 -22,14 -35,14 -14,0 -26,-5 -35,-14l0 0 0 0 0 0c-7,-7 -12,-16 -13,-26l-102 0 0 0 -29 0c-2,9 -7,18 -14,25 -9,8 -21,13 -34,13 -13,0 -26,-6 -35,-14l0 0c-8,-9 -14,-22 -14,-35 0,-14 6,-26 14,-35l0 0c8,-7 18,-12 29,-14l12 -44c1,-5 6,-7 10,-6 5,1 7,6 6,10l-13 46 35 37 19 0 0 -1 -1 -1 0 0 0 0 0 0 0 0 0 -1 0 0 0 0 0 0 0 0 0 0 -1 -1 0 0 0 0 0 0 0 -1 0 0 0 0 0 0 0 0 0 0 0 -1 -1 0 0 0 0 0 0 0 0 0 0 -1 0 0 0 0 0 0 0 0 0 -1 0 0 0 0 -1 0 0 0 0 0 0 -1 0 0 0 0 0 0 0 0 0 0 0 0 0 -1 0 0 -1 0 0 0 0 -1 0 0 0 0 0 0 0 0 0 -1 0 0 0 0 0 0 0 -1 -1 0 0 0 0 0 0 0 0 0 0 -1 0 0 0 0 0 0 0 0 0 0 0 -1 0 0 0 0 -1 0 0 0 0 -1 0 0 0 0 0 0c-6,-15 -10,-30 -12,-46 -2,-24 -1,-49 6,-76l-13 -1 -5 19c-1,4 -6,7 -10,6 -4,-2 -7,-6 -6,-11l4 -14 -3 0 0 0 -1 0c-5,-1 -8,-5 -8,-10l5 -37c0,0 0,-1 1,-2 1,-4 6,-7 10,-5l35 11c2,0 3,-1 5,-2l0 0 65 -27c1,-3 1,-7 2,-10l0 -1zm59 100l-33 0 0 0 0 0 -1 0c-12,0 -24,5 -32,13 -9,9 -14,21 -14,34l0 11 6 0 0 0 17 0 0 -11c0,-8 3,-14 8,-19l0 0c5,-5 11,-8 18,-8l31 0 0 -20zm-59 -12c0,-2 -1,-5 -1,-9 0,-3 -1,-6 -1,-9l-45 18c-6,2 -12,2 -18,1 -6,24 -7,47 -5,69 2,13 5,25 9,37l3 0c1,-9 6,-18 12,-24l0 0c3,-3 5,-5 8,-6l0 -18c0,-18 7,-34 19,-46 5,-5 12,-10 19,-13zm19 78l0 0 0 1 0 36 0 0c0,4 -2,7 -5,8l0 0 0 0 0 0 0 0 0 0 -1 0 0 0 0 0 0 1 0 0 -1 0 0 0 0 0 0 0 0 0 0 0 0 0 0 0 0 0 0 0 -1 0 0 0 0 0 0 0 0 0 0 0 0 0 0 0 0 0 0 0 -1 0 0 0 -60 0 0 0c-1,0 -1,0 -2,0l-2 0 0 0 1 1 0 0 0 0 0 1 0 0 1 2 0 0 0 1 1 0 0 0 0 0 0 0 0 0 0 1 0 0 0 0 0 0 0 0 0 0 0 0 0 0 0 1 1 0 0 0 0 0 0 0 0 0 0 0 0 0 0 1 0 0 0 0 1 1 0 0 0 0 0 0 0 0 0 0 0 0 0 1 0 0 0 0 104 0 0 0 41 0 40 0 1 0 0 0 20 0 -17 -85 -22 0 0 0 -51 0 0 0 -39 0c-2,0 -4,1 -6,3l0 0c-2,2 -3,4 -3,7l0 19zm-60 29l9 0 34 0 0 -20 -17 0 0 0c-7,0 -14,3 -19,8l0 0 0 0c-3,3 -6,7 -7,12zm66 -198l0 0 0 0 -1 1 0 0 0 0 -1 0 0 0 0 0 0 0 -1 1 0 0 0 0 0 0 0 0 -1 0 0 0 0 0 0 0 -1 1 -1 0 0 0 -1 0 0 0 -1 1c0,1 0,2 -1,4l0 2c3,1 5,1 8,2l0 0 0 0 0 0 0 1 0 0 1 0 0 0 0 0 0 0 0 0 0 0 1 0 0 0 0 0 0 0 0 0 0 0 0 1 0 0 1 0 0 0 0 0 0 0 0 0 0 0 0 0 0 0 1 0 0 0 0 0 0 1 0 0 0 0 0 0 1 0 0 0 0 0 0 0 0 0 0 0 0 0 0 1 1 0 0 0 0 0 0 0 0 0 0 0 0 0 2 1 0 0c2,3 5,6 6,9l0 1 0 0 0 0 0 0 0 0 0 0 0 0 1 0 0 0 0 0 0 1 0 0 0 0 0 1 0 0c2,6 2,13 -1,19l0 0 0 0 0 0 0 0 0 0 0 0 0 0 0 1 0 0 0 0 0 0 0 0 -1 0 0 0 0 1 0 0 0 0 0 0 0 0 0 0 0 0 0 1 0 0 0 0 0 0 -1 0 0 0 0 0 0 1 0 0 0 0 0 0 0 0 0 0c-3,5 -7,8 -12,10l0 0 -9 4 0 0c0,5 0,10 1,14l0 0 0 1 0 0 0 5 9 0 1 0 0 0 33 0c-1,-3 -1,-6 -1,-9 -1,-6 -2,-12 -3,-18 -4,-16 -10,-30 -16,-41 -5,-8 -10,-15 -14,-18zm-22 53l0 -1 14 -5 0 0 0 -1 0 0c2,0 3,-1 4,-2l0 0 0 0 0 0 0 -1 0 0 0 0 0 0 0 0 0 0 1 0 0 0 0 0 0 0 0 0 0 0 0 0 0 0 0 0 0 0 0 0 0 0 0 0 0 0 0 -1 0 0 0 0 0 0 0 0 0 0 0 0 0 0 0 0 0 0 0 0 0 0 0 0 0 0 0 0 0 0 0 0 0 0 0 0 1 0 0 0 0 -1 0 0 0 0 0 0 0 0 0 0 0 0c0,-1 1,-3 0,-4l0 0 0 0 0 0 0 0 0 0 0 0 0 -1 0 0 0 0 0 0 0 0 0 0 0 0 0 0 0 0 0 0 0 0 0 0 0 0 0 0 0 0 0 0 0 -1 0 0 0 0 0 0 0 0 0 0 0 0 0 0 0 0 0 -1 0 0 0 0 0 0 0 0 0 0 0 0 0 -1 0 0 0 0c-1,-1 -1,-1 -2,-2l0 0 0 0 0 0 0 0 0 0 0 0 0 0 0 0 0 0 0 0 0 0 0 -1 0 0 0 0 0 0 0 0 0 0 0 0 0 0 0 0 0 0 0 0 -1 0 0 0 0 0 0 0 0 0 0 0c-1,-1 -2,-2 -3,-2 -1,-1 -2,-1 -4,-1l0 0 0 0 0 0 0 0 0 0 0 0 0 0 -1 0 0 0 0 0 0 0 0 0 0 0 0 0 0 0 0 0 0 0 0 0 0 0 0 0 0 0 0 0 -1 0 0 0 0 0 0 0 0 0 0 0 0 0 0 1 0 0 -1 0 0 0 0 0 0 0 0 0 0 0 0 0 0 0 -1 0 0 0 0 0 -69 28 -1 1c-1,0 -2,1 -3,2l0 0 0 0 0 0 0 0 0 0 0 0 0 0 -1 0 0 0 0 1 0 0 0 0 0 0 0 0 0 0 0 0 0 0 0 0 0 0 0 0 0 0 0 0 0 0 0 0 0 0 0 0 0 1 0 0 -1 0 0 0 0 0 0 0 0 0 0 0 0 0 0 0 0 0 0 0 0 0 0 0 0 0 0 0 0 1 0 0 0 0 0 0 0 0 0 0 0 0 0 0 0 0 0 0 0 0 0 0 0 0 0 0 0 0 0 0 0 0 0 0 0 0 -1 2 0 0 0 0 0 0c0,1 0,2 0,3l0 0 0 0 0 0 0 1 0 0 0 0 0 1 0 0 1 0 0 0 0 0 0 1 0 0 0 0 0 0 0 0 0 0 0 0 0 0 0 0 0 0 0 0 0 0 0 0 0 0 0 0 0 0 0 0 0 0 0 0 0 1 0 0 0 0 0 0 0 0 0 0 0 0 0 0 0 0 0 0 1 0 0 0 0 0 0 0 0 0 0 0 0 0 0 0 0 0 0 0 0 0 0 1 0 0 0 0 0 0 0 0 0 0 0 0 0 0 0 0 0 0 0 0 0 0 1 1 0 0c1,1 2,2 3,2l1 0c2,1 5,1 7,0l56 -22zm-87 16c0,-1 0,-3 0,-4l0 0 0 0 0 0 0 0 0 0 0 -1 0 0 0 0 0 0 0 0 0 0 0 0 0 0 0 -1 0 0 0 0 0 0 0 0 0 0 0 0 0 0 0 0 0 0 0 0 0 -1 0 0 0 0 0 0 0 0 0 0 0 0 0 0 1 0 0 0 0 0 0 0 0 -1 0 0 0 0 0 0 0 0 0 0 0 0 0 0 0 0 0 0 0 0 0 0 0 0 0 -1 0 0 0 0 0 0 0 0 0 0 0 0 0 0 0 -1 0 0 0 0 0 -1 0 0 0 0 -19 -7 -3 18 21 0zm-15 167l-35 -37c-8,1 -15,4 -20,9l0 0c-5,6 -9,14 -9,23 0,9 4,17 9,23l0 0c6,5 14,9 23,9 9,0 16,-3 22,-9 5,-4 9,-11 10,-18zm195 6l-31 0c1,5 4,10 8,14l0 0c6,6 14,9 23,9 9,0 17,-3 23,-9l0 0c4,-4 6,-9 8,-14l-31 0zm-128 -294l32 0 0 0c4,0 8,2 9,6l8 31 0 0 0 0c4,-2 7,-5 10,-8 4,-6 7,-13 7,-21 0,-9 -4,-18 -10,-24 -6,-6 -14,-9 -24,-9 -9,0 -17,3 -23,9 -4,5 -8,10 -9,16z"/>
  </g>
 </g>
</svg>
