<?xml version="1.0" encoding="UTF-8"?>
<!DOCTYPE svg PUBLIC "-//W3C//DTD SVG 1.0//EN" "http://www.w3.org/TR/2001/REC-SVG-20010904/DTD/svg10.dtd">
<!-- Creator: CorelDRAW X7 -->
<svg xmlns="http://www.w3.org/2000/svg" xml:space="preserve" width="3.9794mm" height="3.7667mm" version="1.0" style="shape-rendering:geometricPrecision; text-rendering:geometricPrecision; image-rendering:optimizeQuality; fill-rule:evenodd; clip-rule:evenodd"
viewBox="0 0 398 377"
 xmlns:xlink="http://www.w3.org/1999/xlink">
 <defs>
  <style type="text/css">
   <![CDATA[
    .str0 {stroke:#FFB47F;stroke-width:16.93;stroke-linecap:round;stroke-linejoin:round}
    .fil0 {fill:none}
   ]]>
  </style>
 </defs>
 <g id="Camada_x0020_1">
  <metadata id="CorelCorpID_0Corel-Layer"/>
  <g id="_2756909162752">
   <path class="fil0 str0" d="M180 50l-42 0c0,-23 19,-42 42,-42 24,0 42,19 42,42 0,19 -12,36 -31,41l-11 -41z"/>
   <path class="fil0 str0" d="M90 328c-2,21 -19,38 -41,38 -22,0 -41,-18 -41,-41 0,-22 19,-40 41,-40l0 0 40 43 1 0z"/>
   <path class="fil0 str0" d="M276 328l-41 0c0,22 19,40 41,40 22,0 41,-18 41,-40l-41 0z"/>
   <path class="fil0 str0" d="M347 328l-221 0c-5,-9 -9,-18 -13,-27l77 0 0 -57c0,-10 8,-18 18,-18l119 0 20 102z"/>
   <path class="fil0 str0" d="M73 197l7 -25 30 1c-18,60 -9,110 16,155l-37 0 -40 -43 14 -50"/>
   <path class="fil0 str0" d="M66 172l43 0c-6,-7 -6,-18 1,-25l-39 -13 -5 38z"/>
   <rect class="fil0 str0" transform="matrix(0.396952 0.973369 -14.9187 6.08388 203.42 107.469)" width="35.26" height="7.01" rx="4" ry="4"/>
   <path class="fil0 str0" d="M204 85c15,5 31,33 39,66 3,14 4,27 4,38l-41 0c-2,0 -15,0 -17,0 -1,-2 -2,-16 -3,-34l14 -6c10,-4 14,-15 11,-24l0 0c-4,-10 -15,-14 -25,-11l0 1c1,-10 3,-19 5,-24l0 0c5,-1 9,-3 13,-6z"/>
   <path class="fil0 str0" d="M190 301l0 -37 -25 0c-19,0 -35,16 -35,35l0 2 60 0z"/>
   <path class="fil0 str0" d="M151 264l39 0 0 -20c0,-10 8,-18 18,-18l39 0 0 -37 -41 0c-30,0 -55,24 -55,55l0 20z"/>
   <path class="fil0 str0" d="M308 117l-10 0c-10,0 -18,8 -18,18m0 25l0 48c0,10 8,18 18,18l74 0c9,0 17,-8 17,-18l0 -73c0,-10 -8,-18 -17,-18l-25 0"/>
   <path class="fil0 str0" d="M187 86c-4,2 -9,3 -13,3 -12,0 -22,-8 -25,-19"/>
  </g>
 </g>
</svg>
