<svg width="73" height="55" viewBox="0 0 73 55" fill="none" xmlns="http://www.w3.org/2000/svg">
<path d="M39.7151 29.4833C47.81 29.5226 55.1992 22.9119 55.1992 14.8697C55.1992 6.07587 47.81 -0.00252017 39.7151 7.83863e-07H32.7487C24.5569 -0.00252017 17.8141 6.07731 17.8141 14.8697C17.8141 22.9137 24.5569 29.5226 32.7487 29.4833H39.7151Z" fill="#006095"/>
<path d="M35.856 22.7005V6.73172C39.0803 7.96303 41.3693 11.0706 41.3747 14.7156C41.3693 18.3613 39.0803 21.4671 35.856 22.7005ZM24.1905 14.7156C24.1978 11.0728 26.4831 7.96699 29.7056 6.73208V22.6973C26.4831 21.4635 24.1978 18.3595 24.1905 14.7156ZM32.7813 1.21875C25.2959 1.22127 19.2303 7.26148 19.2285 14.7156C19.2303 22.169 25.2959 28.2081 32.7813 28.2103C40.2693 28.2081 46.336 22.169 46.3371 14.7156C46.336 7.26148 40.2693 1.22127 32.7813 1.21875Z" fill="white"/>
<path d="M1.44905 36.5009C1.44905 35.1064 0.718013 35.1979 0.0177249 35.1831V34.7801C0.62469 34.8097 1.24721 34.8097 1.85562 34.8097C2.50925 34.8097 3.39727 34.7801 4.55043 34.7801C8.58323 34.7801 10.7789 37.4617 10.7789 40.2078C10.7789 41.743 9.87638 45.6037 4.36269 45.6037C3.56908 45.6037 2.83588 45.5731 2.10448 45.5731C1.40419 45.5731 0.718013 45.5879 0.0177249 45.6037V45.2003C0.951322 45.1071 1.4042 45.0761 1.44905 44.0216V36.5009ZM2.9755 43.7738C2.9755 44.9677 3.83314 45.1071 4.59564 45.1071C7.96035 45.1071 9.0654 42.5796 9.0654 40.269C9.0654 37.3703 7.1964 35.2771 4.19088 35.2771C3.55136 35.2771 3.25728 35.3225 2.9755 35.3391V43.7738ZM11.3251 45.2007H11.6206C12.0561 45.2007 12.3679 45.2007 12.3679 44.6879V40.4865C12.3679 39.8048 12.1346 39.7101 11.5576 39.4018V39.1533C12.2898 38.935 13.1626 38.6419 13.2241 38.5954C13.3337 38.5335 13.4267 38.5169 13.5048 38.5169C13.5818 38.5169 13.614 38.6102 13.614 38.7352V44.6879C13.614 45.2007 13.9566 45.2007 14.3932 45.2007H14.6572V45.6041C14.1273 45.6041 13.5818 45.5731 13.0226 45.5731C12.4616 45.5731 11.9006 45.5882 11.3251 45.6041V45.2007ZM12.9915 36.1296C12.5857 36.1296 12.2283 35.7576 12.2283 35.3542C12.2283 34.966 12.6027 34.6084 12.9915 34.6084C13.3952 34.6084 13.7544 34.9354 13.7544 35.3542C13.7544 35.7734 13.4111 36.1296 12.9915 36.1296ZM16.137 40.5791C16.137 40.0057 15.9648 39.8512 15.2345 39.5566V39.262C15.9033 39.0452 16.5414 38.8429 17.2898 38.5169C17.3361 38.5169 17.3817 38.5486 17.3817 38.6718V39.6802C18.2708 39.0452 19.0344 38.5169 20.079 38.5169C21.4018 38.5169 21.8688 39.4785 21.8688 40.6882V44.6879C21.8688 45.2007 22.211 45.2007 22.6476 45.2007H22.9279V45.6041C22.3817 45.6041 21.8366 45.5731 21.2774 45.5731C20.716 45.5731 20.155 45.5882 19.5947 45.6041V45.2007H19.8747C20.3116 45.2007 20.6216 45.2007 20.6216 44.6879V40.6731C20.6216 39.7882 20.079 39.355 19.1899 39.355C18.6918 39.355 17.8975 39.7576 17.3817 40.099V44.6879C17.3817 45.2007 17.7264 45.2007 18.1626 45.2007H18.4426V45.6041C17.8975 45.6041 17.3517 45.5731 16.791 45.5731C16.2311 45.5731 15.6693 45.5882 15.1094 45.6041V45.2007H15.3904C15.8263 45.2007 16.137 45.2007 16.137 44.6879V40.5791ZM24.1122 41.3246C24.08 41.4643 24.08 41.6962 24.1122 42.2238C24.2037 43.6964 25.1565 44.9054 26.4004 44.9054C27.2584 44.9054 27.9291 44.4401 28.5038 43.8671L28.7216 44.0843C28.005 45.0304 27.117 45.8363 25.8412 45.8363C23.3638 45.8363 22.8661 43.4479 22.8661 42.4561C22.8661 39.4165 24.921 38.5169 26.0105 38.5169C27.2733 38.5169 28.6293 39.3074 28.6431 40.9511C28.6431 41.0454 28.6431 41.1373 28.6293 41.2313L28.4879 41.3246H24.1122ZM26.8692 40.8279C27.2584 40.8279 27.3036 40.6259 27.3036 40.4401C27.3036 39.6496 26.8215 39.0139 25.9486 39.0139C24.9991 39.0139 24.3451 39.7101 24.1585 40.8279H26.8692ZM29.0023 45.2007H29.423C29.8574 45.2007 30.1692 45.2007 30.1692 44.6879V40.3317C30.1692 39.8512 29.5937 39.7576 29.3597 39.6337V39.4018C30.4965 38.9206 31.1198 38.5169 31.2619 38.5169C31.3534 38.5169 31.3997 38.5634 31.3997 38.7193V40.1145H31.433C31.8208 39.5098 32.4762 38.5169 33.4257 38.5169C33.8153 38.5169 34.313 38.7802 34.313 39.3388C34.313 39.7576 34.0179 40.1307 33.582 40.1307C33.0973 40.1307 33.0973 39.7576 32.5529 39.7576C32.2878 39.7576 31.416 40.1145 31.416 41.0454V44.6879C31.416 45.2007 31.7267 45.2007 32.1633 45.2007H33.0351V45.6041C32.1782 45.5882 31.5264 45.5731 30.8557 45.5731C30.2173 45.5731 29.5629 45.5882 29.0023 45.6041V45.2007ZM34.9981 43.4479C35.2011 44.4711 35.8236 45.3401 36.9612 45.3401C37.8785 45.3401 38.2211 44.7819 38.2211 44.2395C38.2211 42.4093 34.827 42.9981 34.827 40.5024C34.827 39.6334 35.5288 38.5169 37.2412 38.5169C37.7389 38.5169 38.4084 38.657 39.0154 38.9675L39.1253 40.5477H38.7669C38.6113 39.5718 38.0666 39.0136 37.0693 39.0136C36.4457 39.0136 35.8547 39.3701 35.8547 40.0367C35.8547 41.8522 39.4679 41.2929 39.4679 43.727C39.4679 44.7502 38.6425 45.8367 36.7886 45.8367C36.1658 45.8367 35.4336 45.6192 34.8893 45.3095L34.7174 43.5261L34.9981 43.4479ZM53.5312 37.5863H53.1427C52.8461 35.7734 51.5533 35.0438 49.8098 35.0438C48.0178 35.0438 45.4164 36.2373 45.4164 39.9586C45.4164 43.0925 47.6608 45.3401 50.0583 45.3401C51.5996 45.3401 52.8779 44.286 53.1897 42.6571L53.5471 42.75L53.1897 45.0138C52.5354 45.4182 50.7752 45.8363 49.7465 45.8363C46.1033 45.8363 43.7988 43.4947 43.7988 40.0057C43.7988 36.8268 46.648 34.5468 49.7006 34.5468C50.9615 34.5468 52.1769 34.9512 53.3756 35.3701L53.5312 37.5863ZM54.0929 45.2007H54.3874C54.8247 45.2007 55.1365 45.2007 55.1365 44.6879V36.0525C55.1365 35.0438 54.9028 35.0128 54.311 34.8425V34.5943C54.9336 34.393 55.5879 34.1139 55.9149 33.927C56.0849 33.8348 56.2104 33.7559 56.2564 33.7559C56.3511 33.7559 56.3826 33.8499 56.3826 33.9742V44.6879C56.3826 45.2007 56.7248 45.2007 57.1614 45.2007H57.4244V45.6041C56.8966 45.6041 56.3511 45.5731 55.7905 45.5731C55.2302 45.5731 54.6695 45.5882 54.0929 45.6041V45.2007ZM64.0926 44.7502C64.0926 45.0304 64.2634 45.0451 64.5278 45.0451C64.7152 45.0451 64.9477 45.0304 65.151 45.0304V45.3566C64.4804 45.4182 63.2039 45.7438 62.9077 45.8367L62.8292 45.7899V44.5344C61.8963 45.294 61.1786 45.8367 60.0718 45.8367C59.2315 45.8367 58.3594 45.294 58.3594 43.9921V40.0216C58.3594 39.6182 58.2976 39.2304 57.4262 39.1533V38.8583C57.9876 38.8432 59.2315 38.7503 59.4348 38.7503C59.6073 38.7503 59.6073 38.8583 59.6073 39.1997V43.1994C59.6073 43.6654 59.6073 44.9987 60.9612 44.9987C61.4908 44.9987 62.1914 44.5957 62.8447 44.054V39.8811C62.8447 39.5718 62.0978 39.4018 61.5382 39.2466V38.9675C62.9384 38.8738 63.812 38.7503 63.9668 38.7503C64.0927 38.7503 64.0926 38.8583 64.0926 39.0298V44.7502ZM67.1915 39.6337C67.8136 39.1065 68.655 38.5169 69.5123 38.5169C71.3191 38.5169 72.4078 40.0842 72.4078 41.7736C72.4078 43.8048 70.9136 45.8367 68.685 45.8367C67.5337 45.8367 66.9264 45.464 66.5209 45.294L66.0542 45.6498L65.7283 45.4798C65.8662 44.5651 65.9457 43.6654 65.9457 42.7197V36.0525C65.9457 35.0438 65.711 35.0128 65.1196 34.8425V34.5943C65.7439 34.393 66.3964 34.1139 66.7242 33.927C66.8952 33.8348 67.019 33.7559 67.0674 33.7559C67.1607 33.7559 67.1915 33.8499 67.1915 33.9742V39.6337ZM67.1915 43.8509C67.1915 44.4401 67.7518 45.4337 68.7954 45.4337C70.4622 45.4337 71.1624 43.8048 71.1624 42.424C71.1624 40.7498 69.8867 39.355 68.6713 39.355C68.0936 39.355 67.6118 39.7273 67.1915 40.0842V43.8509ZM0 54.6194H0.119367C0.423934 54.6194 0.745867 54.5783 0.745867 54.1389V49.719C0.745867 49.2789 0.423934 49.2371 0.119367 49.2371H0V48.9839C0.330611 48.9839 0.83919 49.0171 1.25553 49.0171C1.67874 49.0171 2.18659 48.9839 2.58485 48.9839V49.2371H2.46584C2.162 49.2371 1.83934 49.2789 1.83934 49.719V54.1389C1.83934 54.5783 2.162 54.6194 2.46584 54.6194H2.58485V54.8736C2.17827 54.8736 1.66861 54.8405 1.24649 54.8405C0.830871 54.8405 0.330611 54.8736 0 54.8736V54.6194ZM8.40708 53.2105L8.42408 53.1939V50.0305C8.42408 49.3383 7.94046 49.2371 7.68653 49.2371H7.49989V48.9839C7.8985 48.9839 8.28843 49.0174 8.68632 49.0174C9.03357 49.0174 9.38227 48.9839 9.7288 48.9839V49.2371H9.60256C9.24554 49.2371 8.84729 49.3048 8.84729 50.3085V54.1483C8.84729 54.4433 8.85597 54.7382 8.89757 54.9997H8.57564L4.21186 50.1562V53.6329C4.21186 54.3669 4.35474 54.6194 5.008 54.6194H5.15161V54.8736C4.78772 54.8736 4.42383 54.8405 4.05885 54.8405C3.67868 54.8405 3.28839 54.8736 2.90677 54.8736V54.6194H3.02542C3.60996 54.6194 3.78756 54.2236 3.78756 53.5494V49.9956C3.78756 49.5238 3.3969 49.2371 3.0171 49.2371H2.90677V48.9839C3.22834 48.9839 3.55896 49.0174 3.88016 49.0174C4.13481 49.0174 4.38114 48.9839 4.63507 48.9839L8.40708 53.2105ZM10.9981 49.4057C10.3614 49.4057 10.3376 49.5576 10.2102 50.1728H9.95632C9.98923 49.9369 10.0323 49.701 10.058 49.4557C10.0923 49.2191 10.1086 48.9839 10.1086 48.7394H10.3119C10.3803 48.9929 10.5919 48.9839 10.8219 48.9839H15.1933C15.4226 48.9839 15.6339 48.9757 15.6516 48.7221L15.8538 48.756C15.8209 48.9839 15.7865 49.2112 15.7608 49.4395C15.7453 49.6675 15.7453 49.8954 15.7453 50.1227L15.4906 50.2163C15.4733 49.9044 15.4306 49.4057 14.8634 49.4057H13.4737V53.8944C13.4737 54.5452 13.7706 54.6194 14.1765 54.6194H14.3375V54.8736C14.0072 54.8736 13.4136 54.8405 12.9568 54.8405C12.4482 54.8405 11.8546 54.8736 11.5237 54.8736V54.6194H11.6846C12.1523 54.6194 12.3882 54.5779 12.3882 53.9121V49.4057H10.9981ZM16.1247 54.6194H16.2437C16.5486 54.6194 16.8709 54.5783 16.8709 54.1389V49.719C16.8709 49.2789 16.5486 49.2371 16.2437 49.2371H16.1247V48.9839C16.6405 48.9839 17.5238 49.0171 18.2343 49.0171C18.9472 49.0171 19.8273 48.9839 20.4031 48.9839C20.3887 49.3462 20.397 49.9041 20.4216 50.275L20.1662 50.3427C20.1253 49.7946 20.024 49.356 19.1335 49.356H17.9568V51.5658H18.9639C19.4721 51.5658 19.5831 51.2798 19.6334 50.8232H19.887C19.8703 51.153 19.8616 51.4818 19.8616 51.8103C19.8616 52.1319 19.8703 52.4521 19.887 52.7726L19.6334 52.8226C19.5831 52.317 19.5574 51.9878 18.9718 51.9878H17.9568V53.9535C17.9568 54.502 18.4462 54.502 18.9888 54.502C20.0063 54.502 20.4549 54.4339 20.7095 53.4734L20.9464 53.5314C20.8357 53.9798 20.7345 54.4256 20.6592 54.8736C20.1159 54.8736 19.1415 54.8405 18.3797 54.8405C17.6161 54.8405 16.6076 54.8736 16.1247 54.8736V54.6194ZM22.0902 49.8778C22.0902 49.2623 21.7513 49.2371 21.4879 49.2371H21.3353V48.9836C21.6066 48.9836 22.1318 49.0174 22.649 49.0174C23.1569 49.0174 23.5642 48.9836 24.0131 48.9836C25.0802 48.9836 26.0304 49.2702 26.0304 50.4695C26.0304 51.2276 25.5222 51.6918 24.8526 51.9547L26.3013 54.113C26.539 54.4699 26.7075 54.57 27.1235 54.619V54.8736C26.8435 54.8736 26.5722 54.8405 26.293 54.8405C26.0304 54.8405 25.7584 54.8736 25.4969 54.8736C24.8443 54.0215 24.2837 53.1104 23.7335 52.1387H23.1753V53.9452C23.1753 54.5956 23.4795 54.619 23.8688 54.619H24.0218V54.8736C23.5378 54.8736 23.048 54.8405 22.5644 54.8405C22.1571 54.8405 21.7589 54.8736 21.3353 54.8736V54.619H21.4879C21.8026 54.619 22.0902 54.4775 22.0902 54.1649V49.8778ZM23.1753 51.8348H23.5891C24.4374 51.8348 24.8939 51.515 24.8939 50.5188C24.8939 49.769 24.4113 49.2879 23.6564 49.2879C23.4018 49.2879 23.2933 49.3138 23.1753 49.3214V51.8348ZM32.877 53.2105L32.8922 53.1939V50.0305C32.8922 49.3383 32.41 49.2371 32.1561 49.2371H31.9702V48.9839C32.3684 48.9839 32.7569 49.0174 33.1563 49.0174C33.5042 49.0174 33.85 48.9839 34.2002 48.9839V49.2371H34.0721C33.7166 49.2371 33.3179 49.3048 33.3179 50.3085V54.1483C33.3179 54.4433 33.3259 54.7382 33.3679 54.9997H33.0467L28.6825 50.1562V53.6329C28.6825 54.3669 28.8261 54.6194 29.4787 54.6194H29.6226V54.8736C29.2587 54.8736 28.8941 54.8405 28.5302 54.8405C28.1475 54.8405 27.758 54.8736 27.3771 54.8736V54.6194H27.4946C28.0803 54.6194 28.2582 54.2236 28.2582 53.5494V49.9956C28.2582 49.5238 27.8683 49.2371 27.4874 49.2371H27.3771V48.9839C27.6979 48.9839 28.03 49.0174 28.3519 49.0174C28.604 49.0174 28.8507 48.9839 29.1057 48.9839L32.877 53.2105ZM35.5628 53.6672C35.4767 53.9535 35.3747 54.1742 35.3747 54.3248C35.3747 54.5783 35.731 54.6194 36.0099 54.6194H36.1046V54.8736C35.765 54.8552 35.4188 54.8408 35.0774 54.8408C34.7728 54.8408 34.4697 54.8552 34.1633 54.8736V54.6194H34.2146C34.5449 54.6194 34.8252 54.4256 34.9504 54.0705L36.3079 50.1994C36.4168 49.8872 36.5709 49.4651 36.6219 49.1518C36.8917 49.0603 37.2314 48.8917 37.3923 48.7902C37.4184 48.7812 37.4332 48.7725 37.46 48.7725C37.4853 48.7725 37.5009 48.7725 37.52 48.7985C37.5454 48.8658 37.5692 48.9418 37.5967 49.0091L39.1557 53.4223C39.257 53.7172 39.3579 54.0291 39.4675 54.2833C39.5703 54.5196 39.7482 54.6194 40.0282 54.6194H40.0788V54.8736C39.6976 54.8552 39.3156 54.8408 38.9098 54.8408C38.4949 54.8408 38.0699 54.8552 37.6376 54.8736V54.6194H37.7316C37.9255 54.6194 38.2572 54.5866 38.2572 54.3752C38.2572 54.2661 38.1809 54.0385 38.0861 53.7676L37.7566 52.7891H35.833L35.5628 53.6672ZM36.7995 49.9289H36.7821L35.9939 52.317H37.5775L36.7995 49.9289ZM40.4518 49.4057C39.8159 49.4057 39.7905 49.5576 39.6632 50.1728H39.4086C39.4419 49.9369 39.4849 49.701 39.5113 49.4557C39.5449 49.2191 39.5609 48.9839 39.5609 48.7394H39.7652C39.8325 48.9929 40.0452 48.9839 40.2731 48.9839H44.6466C44.8745 48.9839 45.0861 48.9757 45.1035 48.7221L45.3064 48.756C45.2738 48.9839 45.2398 49.2112 45.2145 49.4395C45.1957 49.6675 45.1957 49.8954 45.1957 50.1227L44.9422 50.2163C44.9266 49.9044 44.8839 49.4057 44.316 49.4057H42.9259V53.8944C42.9259 54.5452 43.2233 54.6194 43.6291 54.6194H43.7904V54.8736C43.4598 54.8736 42.867 54.8405 42.409 54.8405C41.9015 54.8405 41.3069 54.8736 40.9766 54.8736V54.6194H41.1376C41.6046 54.6194 41.8415 54.5779 41.8415 53.9121V49.4057H40.4518ZM45.6189 54.6194H45.7376C46.0436 54.6194 46.3641 54.5783 46.3641 54.1389V49.719C46.3641 49.2789 46.0436 49.2371 45.7376 49.2371H45.6189V48.9839C45.9503 48.9839 46.4578 49.0171 46.8723 49.0171C47.2973 49.0171 47.8055 48.9839 48.2045 48.9839V49.2371H48.0859C47.7802 49.2371 47.4575 49.2789 47.4575 49.719V54.1389C47.4575 54.5783 47.7802 54.6194 48.0859 54.6194H48.2045V54.8736C47.7972 54.8736 47.2886 54.8405 46.8654 54.8405C46.4494 54.8405 45.9503 54.8736 45.6189 54.8736V54.6194ZM51.584 48.8579C53.3908 48.8579 54.8305 49.9722 54.8305 51.7692C54.8305 53.71 53.4321 55 51.6278 55C49.8297 55 48.4577 53.7853 48.4577 51.9713C48.4577 50.2167 49.8217 48.8579 51.584 48.8579ZM51.7121 54.6287C53.3565 54.6287 53.6426 53.1849 53.6426 51.9551C53.6426 50.7212 52.9752 49.2285 51.5678 49.2285C50.0843 49.2285 49.6441 50.5451 49.6441 51.6745C49.6441 53.1849 50.339 54.6287 51.7121 54.6287ZM60.5409 53.2105L60.5583 53.1939V50.0305C60.5583 49.3383 60.0739 49.2371 59.8197 49.2371H59.6359V48.9839C60.0327 48.9839 60.423 49.0174 60.8198 49.0174C61.1689 49.0174 61.5161 48.9839 61.8641 48.9839V49.2371H61.736C61.3808 49.2371 60.9819 49.3048 60.9819 50.3085V54.1483C60.9819 54.4433 60.9898 54.7382 61.0329 54.9997H60.7113L56.3461 50.1562V53.6329C56.3461 54.3669 56.4904 54.6194 57.1422 54.6194H57.2869V54.8736C56.9223 54.8736 56.5588 54.8405 56.1941 54.8405C55.8129 54.8405 55.4219 54.8736 55.0403 54.8736V54.6194H55.16C55.7456 54.6194 55.9218 54.2236 55.9218 53.5494V49.9956C55.9218 49.5238 55.534 49.2371 55.1509 49.2371H55.0403V48.9839C55.3629 48.9839 55.6935 49.0174 56.0151 49.0174C56.269 49.0174 56.5143 48.9839 56.7693 48.9839L60.5409 53.2105ZM63.2256 53.6672C63.1424 53.9535 63.0397 54.1742 63.0397 54.3248C63.0397 54.5783 63.3967 54.6194 63.6745 54.6194H63.7693V54.8736C63.43 54.8552 63.082 54.8408 62.7431 54.8408C62.4371 54.8408 62.1332 54.8552 61.8294 54.8736V54.6194H61.8775C62.2092 54.6194 62.4899 54.4256 62.615 54.0705L63.9729 50.1994C64.0825 49.8872 64.2359 49.4651 64.2851 49.1518C64.5567 49.0603 64.8953 48.8917 65.0577 48.7902C65.0819 48.7812 65.099 48.7725 65.1246 48.7725C65.15 48.7725 65.1662 48.7725 65.1832 48.7985C65.2089 48.8658 65.2349 48.9418 65.2606 49.0091L66.8189 53.4223C66.9206 53.7172 67.0218 54.0291 67.1333 54.2833C67.2349 54.5196 67.4136 54.6194 67.6925 54.6194H67.7442V54.8736C67.3622 54.8552 66.9806 54.8408 66.5733 54.8408C66.1591 54.8408 65.7345 54.8552 65.3022 54.8736V54.6194H65.3959C65.5894 54.6194 65.9222 54.5866 65.9222 54.3752C65.9222 54.2661 65.8452 54.0385 65.7508 53.7676L65.4216 52.7891H63.4976L63.2256 53.6672ZM64.4641 49.9289H64.4471L63.6579 52.317H65.244L64.4641 49.9289ZM69.8794 54.0464C69.8794 54.3845 70.1149 54.485 70.3862 54.5196C70.7338 54.5452 71.1151 54.5452 71.5061 54.5023C71.8613 54.4598 72.1662 54.2578 72.3185 54.0464C72.4538 53.8605 72.5297 53.6247 72.5815 53.4388H72.8271C72.7341 53.9196 72.6151 54.3932 72.5127 54.8736C71.769 54.8736 71.0207 54.8408 70.277 54.8408C69.53 54.8408 68.7852 54.8736 68.0394 54.8736V54.6194H68.1562C68.4626 54.6194 68.7939 54.5783 68.7939 54.0547V49.7186C68.7939 49.2789 68.4626 49.2371 68.1562 49.2371H68.0394V48.9839C68.4875 48.9839 68.9288 49.0174 69.3774 49.0174C69.8111 49.0174 70.2339 48.9839 70.6665 48.9839V49.2371H70.4535C70.1323 49.2371 69.8794 49.2465 69.8794 49.6927V54.0464Z" fill="#1A1918"/>
</svg>
