<svg width="45" height="45" viewBox="0 0 45 45" fill="none" xmlns="http://www.w3.org/2000/svg">
<circle cx="22.5" cy="22.5" r="22.5" fill="black"/>
<path d="M5.07826 26.9503C4.91479 26.6875 4.69683 26.2677 4.56221 25.9569C3.77691 24.1365 3.74165 22.2521 4.40195 20.4446C5.12955 18.4609 6.52065 16.945 8.31882 16.1695C10.5786 15.1984 13.0755 15.3875 15.2423 16.6726C16.6173 17.461 17.5918 18.6788 18.3322 20.403C18.4251 20.6241 18.5085 20.8581 18.5918 21.06L5.07826 26.9503ZM9.59133 19.0954C7.98547 19.7845 7.1585 21.2907 7.33159 23.0533L14.1268 20.1274C12.9569 18.7557 11.4376 18.3007 9.59133 19.0954ZM14.973 25.4601C14.9698 25.4601 14.9698 25.4633 14.9698 25.4633L14.8288 25.3672C14.4217 26.0242 13.7903 26.5594 12.9922 26.9055C11.4728 27.5656 10.0657 27.3958 9.05284 26.5081L8.95988 26.6491C8.95988 26.6491 8.95988 26.6459 8.95668 26.6459L7.23222 29.2257C7.66173 29.5238 8.12009 29.7737 8.60089 29.9756C10.5048 30.7672 12.4537 30.7288 14.3736 29.8955C15.7615 29.293 16.8513 28.3765 17.595 27.2131L14.973 25.4601Z" fill="white"/>
<path d="M23.3132 12.375V26.7131L25.5441 27.6169L24.278 30.5717L21.8163 29.5462C21.265 29.3058 20.8868 28.9405 20.6047 28.527C20.3323 28.1072 20.1304 27.5272 20.1304 26.7516V12.375H23.3132Z" fill="white"/>
<path d="M29.0892 23.0629C29.0892 21.8419 29.6309 20.7459 30.4835 20.0024L28.1949 17.4514C26.6435 18.823 25.6659 20.826 25.6659 23.0565C25.6627 25.2902 26.6403 27.2964 28.1885 28.6681L30.4739 26.1171C29.6244 25.3703 29.0892 24.2807 29.0892 23.0629Z" fill="#00A4E0"/>
<path d="M33.1535 27.1297C32.7048 27.1297 32.2688 27.0528 31.865 26.9182L30.772 30.1646C31.5188 30.4146 32.3169 30.5524 33.1503 30.5524C36.7723 30.5556 39.7948 27.9854 40.4968 24.5723L37.1377 23.8865C36.7562 25.742 35.1183 27.1329 33.1535 27.1297Z" fill="#EF4123"/>
<path d="M33.1631 15.5734C32.3329 15.5734 31.5348 15.708 30.788 15.9547L31.8714 19.2044C32.2784 19.0698 32.7111 18.9961 33.1599 18.9961C35.1279 18.9993 36.769 20.3965 37.1409 22.2553L40.5 21.5759C39.8109 18.1564 36.7883 15.5766 33.1631 15.5734Z" fill="#FFCB05"/>
</svg>
