<?xml version="1.0" encoding="UTF-8"?>
<!DOCTYPE svg PUBLIC "-//W3C//DTD SVG 1.0//EN" "http://www.w3.org/TR/2001/REC-SVG-20010904/DTD/svg10.dtd">
<!-- Creator: CorelDRAW X7 -->
<svg xmlns="http://www.w3.org/2000/svg" xml:space="preserve" width="4.0638mm" height="4.0638mm" version="1.0" style="shape-rendering:geometricPrecision; text-rendering:geometricPrecision; image-rendering:optimizeQuality; fill-rule:evenodd; clip-rule:evenodd"
viewBox="0 0 406 406"
 xmlns:xlink="http://www.w3.org/1999/xlink">
 <defs>
  <style type="text/css">
   <![CDATA[
    .fil0 {fill:#04328C}
    .fil1 {fill:#FFB47F}
   ]]>
  </style>
 </defs>
 <g id="Camada_x0020_1">
  <metadata id="CorelCorpID_0Corel-Layer"/>
  <rect class="fil0" width="406" height="406" rx="68" ry="68"/>
  <path class="fil1" d="M217 84c30,-19 74,-15 99,10 30,30 30,80 0,111 -22,21 -53,28 -80,19l-16 17 -5 -5 -15 15 -21 6 -11 18 -20 6 -8 21 -19 8 -10 15 -37 10 -6 -35 105 -106 -5 -5 17 -16c-10,-32 4,-71 32,-89zm82 26c-8,-9 -21,-9 -30,0 -8,8 -8,22 0,30 9,8 22,8 30,0 9,-8 9,-22 0,-30z"/>
 </g>
</svg>
