<?xml version="1.0" encoding="UTF-8"?>
<!DOCTYPE svg PUBLIC "-//W3C//DTD SVG 1.0//EN" "http://www.w3.org/TR/2001/REC-SVG-20010904/DTD/svg10.dtd">
<!-- Creator: CorelDRAW X7 -->
<svg xmlns="http://www.w3.org/2000/svg" xml:space="preserve" width="3.9794mm" height="3.9794mm" version="1.0" style="shape-rendering:geometricPrecision; text-rendering:geometricPrecision; image-rendering:optimizeQuality; fill-rule:evenodd; clip-rule:evenodd"
viewBox="0 0 398 398"
 xmlns:xlink="http://www.w3.org/1999/xlink">
 <defs>
  <style type="text/css">
   <![CDATA[
    .fil0 {fill:none}
    .fil1 {fill:#FFB47F;fill-rule:nonzero}
   ]]>
  </style>
 </defs>
 <g id="Camada_x0020_1">
  <metadata id="CorelCorpID_0Corel-Layer"/>
  <rect class="fil0" width="398" height="398"/>
  <g>
   <path class="fil1" d="M260 126c0,-5 4,-9 9,-9 5,0 8,4 8,9l0 221c0,14 -5,27 -15,36l0 0c-9,9 -22,15 -36,15l-70 0c-14,0 -26,-6 -36,-15 -9,-9 -15,-22 -15,-36l0 -173 -73 0c-5,0 -9,-2 -12,-5l0 -1 0 1c-3,-4 -5,-8 -5,-13l0 -25c0,-5 2,-9 5,-12l0 -1c3,-3 7,-4 12,-4l73 0 0 -63c0,-14 6,-27 15,-36 10,-9 22,-15 36,-15l70 0c14,0 27,6 36,15l1 1c9,9 14,21 14,35l0 6c0,5 -3,8 -8,8 -5,0 -9,-3 -9,-8l0 -6c0,-9 -3,-17 -9,-23l-1 -1c-6,-6 -14,-10 -24,-10l-70 0c-9,0 -17,4 -24,10 -6,6 -10,15 -10,24l0 63 44 0c3,-3 7,-5 10,-6 5,-2 10,-3 15,-3 11,0 21,4 28,11l0 0c7,7 12,17 12,28 0,10 -5,20 -12,27l0 1c-7,7 -17,11 -28,11 -5,0 -10,-1 -15,-3 -3,-2 -7,-4 -10,-6l-44 0 0 173c0,9 4,18 10,24 7,6 15,10 24,10l70 0c10,0 18,-4 24,-10l0 0c6,-6 10,-15 10,-24l0 -221zm-84 133c0,2 1,4 2,6l0 0 0 0c1,2 2,4 4,5 2,1 3,4 3,7l0 0 0 47 10 0 0 -47c0,-3 2,-6 5,-8 1,-1 2,-2 3,-4l0 0c1,-2 2,-4 2,-6 0,-4 -2,-7 -4,-9l0 0 0 0c-2,-2 -6,-4 -11,-4 -4,0 -8,2 -10,4l-1 0c-2,3 -3,5 -3,9zm-13 14c-3,-4 -4,-9 -4,-14 0,-8 3,-16 9,-21l0 0c6,-6 14,-9 22,-9 9,0 17,3 23,9l0 0c5,5 9,12 9,21 0,5 -1,9 -3,13l-1 1c-1,3 -3,6 -6,8l0 51 0 0c0,5 -3,9 -8,9l-27 0 0 0c-5,0 -9,-4 -9,-9l0 -51c-2,-2 -4,-5 -5,-8l0 0zm37 -4c1,0 2,-1 4,-1l-4 1zm130 -175c-1,4 -4,7 -9,7 -4,0 -8,-4 -8,-8l0 -1c0,-2 1,-4 2,-5l0 0 0 0 0 -1c2,-2 4,-3 7,-3 4,0 8,4 8,9l0 0c0,1 0,2 0,2zm-17 -55c0,-5 4,-9 9,-9 5,0 9,4 9,9l0 23c0,5 -4,9 -9,9 -5,0 -9,-4 -9,-9l0 -23zm62 45c4,0 8,3 8,8 0,5 -4,9 -8,9l-24 0c-4,0 -8,-4 -8,-9 0,-5 4,-8 8,-8l24 0zm-62 37c0,-4 4,-8 9,-8 5,0 9,4 9,8l0 24c0,5 -4,8 -9,8 -5,0 -9,-3 -9,-8l0 -24zm-21 -37c5,0 9,3 9,8 0,5 -4,9 -9,9l-23 0c-5,0 -9,-4 -9,-9 0,-5 4,-8 9,-8l23 0zm-178 72l0 0 0 0 56 0 0 0c2,0 4,1 6,3 2,2 4,4 7,5 3,1 5,2 8,2 6,0 12,-3 16,-6l0 -1c4,-4 7,-9 7,-15 0,-6 -3,-12 -7,-16l0 0c-4,-4 -9,-6 -16,-6 -3,0 -5,0 -8,1 -3,1 -5,3 -7,5 -1,2 -4,3 -6,3l-56 0 0 0 0 0 -82 0 0 25 82 0z"/>
  </g>
 </g>
</svg>
