<svg width="136" height="50" viewBox="0 0 136 50" fill="none" xmlns="http://www.w3.org/2000/svg">
<g clip-path="url(#clip0)">
<path d="M37.6046 19.0474C36.8445 19.8978 35.7043 20.5915 34.2287 21.1062C32.7308 21.6433 31.0987 21.9118 29.3325 21.9118C26.6273 21.9118 24.4363 21.0614 22.8042 19.4054C21.1945 17.7271 20.3226 15.4221 20.2108 12.4457L20.1884 10.6331C20.1884 8.59666 20.5462 6.80638 21.2616 5.26227C21.9994 3.74054 23.0278 2.55448 24.3692 1.74886C25.7106 0.920857 27.2756 0.495667 29.0642 0.495667C31.6353 0.495667 33.6474 1.09988 35.0783 2.28594C36.5091 3.472 37.3587 5.23989 37.6046 7.58963H32.7531C32.5966 6.42595 32.2165 5.59795 31.6576 5.10562C31.0763 4.6133 30.2715 4.36713 29.2207 4.36713C27.9687 4.36713 27.0073 4.90422 26.3143 5.97838C25.6212 7.03017 25.2859 8.5519 25.2635 10.5436V11.7968C25.2635 13.878 25.6212 15.4445 26.3366 16.4739C27.0521 17.5257 28.1476 18.0404 29.6902 18.0404C30.9869 18.0404 31.9483 17.7494 32.5966 17.1676V13.9451H29.1089V10.4764H37.6046V19.0474ZM57.3906 11.6401C57.3906 13.6542 57.0105 15.4668 56.2504 17.0333C55.5126 18.5998 54.4395 19.7859 53.0533 20.6363C51.6672 21.4866 50.0798 21.9118 48.3136 21.9118C46.5474 21.9118 44.9824 21.4866 43.5963 20.681C42.2325 19.853 41.1594 18.6893 40.3992 17.19C39.6391 15.6682 39.2367 13.9227 39.192 11.9534V10.7897C39.192 8.75331 39.572 6.94065 40.3098 5.39654C41.07 3.83005 42.1431 2.62162 43.5292 1.77124C44.9154 0.920857 46.5027 0.495667 48.2913 0.495667C50.0575 0.495667 51.6225 0.920857 53.0086 1.77124C54.3724 2.59924 55.4455 3.80767 56.228 5.35179C56.9882 6.8959 57.3683 8.66379 57.3906 10.6779V11.6401ZM52.2932 10.745C52.2932 8.68617 51.9355 7.11968 51.2424 6.04552C50.5494 4.97135 49.5656 4.43427 48.2913 4.43427C45.7649 4.43427 44.4459 6.31406 44.3117 10.096L44.2894 11.6177C44.2894 13.6766 44.6247 15.2431 45.2954 16.3396C45.9885 17.4361 46.9722 17.9732 48.3136 17.9732C49.588 17.9732 50.5494 17.4361 51.2424 16.362C51.9355 15.2878 52.2708 13.7437 52.2932 11.7073V10.745ZM65.8416 0.808964L70.4695 15.2878L75.0974 0.808964H81.6928V21.5985H76.6624V16.7424L77.1543 6.80638L72.1239 21.5985H68.8151L63.7847 6.784L64.2542 16.7424V21.5985H59.2463V0.808964H65.8416ZM97.0521 12.759H89.16V17.7494H98.4829V21.5985H84.152V0.808964H98.5053V4.65805H89.16V9.04423H97.0521V12.759ZM110.511 16.0934C110.511 15.3549 110.243 14.7731 109.729 14.3703C109.214 13.9451 108.298 13.5199 107.001 13.0947C105.682 12.6472 104.631 12.222 103.804 11.8192C101.099 10.4988 99.7573 8.66379 99.7573 6.35881C99.7573 5.19514 100.093 4.18811 100.763 3.29297C101.434 2.42021 102.395 1.72648 103.603 1.23415C104.832 0.741829 106.218 0.495667 107.761 0.495667C109.237 0.495667 110.578 0.764208 111.763 1.30129C112.948 1.83837 113.887 2.59924 114.535 3.58389C115.184 4.56854 115.519 5.68746 115.519 6.96303H110.533C110.533 6.11265 110.265 5.46368 109.751 4.99373C109.214 4.52378 108.521 4.27762 107.627 4.27762C106.733 4.27762 106.04 4.47903 105.525 4.88184C104.989 5.26227 104.743 5.77698 104.743 6.38119C104.743 6.91828 105.034 7.4106 105.592 7.83579C106.174 8.28336 107.18 8.73093 108.611 9.1785C110.042 9.64844 111.226 10.1631 112.143 10.6779C114.401 11.9758 115.519 13.7661 115.519 16.0487C115.519 17.8837 114.826 19.2935 113.462 20.3453C112.098 21.3747 110.22 21.9118 107.828 21.9118C106.129 21.9118 104.609 21.5985 103.245 20.9943C101.881 20.3901 100.853 19.5621 100.16 18.5103C99.4666 17.4585 99.1313 16.2277 99.1313 14.8626H104.162C104.162 15.9815 104.452 16.8095 105.011 17.3242C105.592 17.8613 106.531 18.1299 107.828 18.1299C108.655 18.1299 109.304 17.9508 109.796 17.5928C110.265 17.2347 110.511 16.72 110.511 16.0934ZM17.4162 42.679C17.3491 44.1112 16.9467 45.4092 16.2312 46.5057C15.5158 47.6246 14.5097 48.475 13.2354 49.0792C11.9387 49.7058 10.4631 49.9967 8.80869 49.9967C6.08112 49.9967 3.93485 49.1016 2.34749 47.3337C0.782498 45.5434 0 43.0371 0 39.7922V38.7628C0 36.7263 0.357713 34.9361 1.07314 33.4143C1.76621 31.8702 2.79463 30.6842 4.13606 29.8562C5.45513 29.0282 6.99777 28.603 8.74162 28.603C11.268 28.603 13.3025 29.2743 14.8451 30.5947C16.3654 31.9374 17.2373 33.7724 17.4385 36.0997H12.4529C12.4082 34.8242 12.0952 33.9067 11.4915 33.3696C10.8879 32.8101 9.97126 32.5192 8.74162 32.5192C7.51198 32.5192 6.59534 32.9891 6.01405 33.929C5.43277 34.8689 5.11977 36.3683 5.09741 38.4047V39.8817C5.09741 42.0972 5.3657 43.686 5.94698 44.6483C6.48355 45.6106 7.44491 46.0805 8.80869 46.0805C9.97126 46.0805 10.8432 45.812 11.4468 45.2749C12.0728 44.7154 12.3858 43.8651 12.4305 42.679H17.4162ZM36.442 49.7058H31.4564V41.023H24.0786V49.7058H19.0482V28.8939H24.0786V37.1515H31.4564V28.8939H36.442V49.7058ZM50.9294 45.812H44.0658L42.8809 49.7058H37.5152L45.1389 28.8939H49.8563L57.5471 49.7058H52.1591L50.9294 45.812ZM45.2731 41.9629H49.7445L47.5088 34.7347L45.2731 41.9629ZM65.305 44.0441L69.4411 28.8939H75.0303L68.0326 49.7058H62.5551L55.6021 28.8939H61.169L65.305 44.0441ZM88.7129 40.8664H80.8208V45.8567H90.1437V49.7058H75.8128V28.8939H90.1661V32.7654H80.8208V37.1515H88.7129V40.8664ZM96.7838 49.7058H91.7982V28.8939H96.7838V49.7058ZM107.269 42.3657H104.542V49.7058H99.5337V28.8939H107.716C110.176 28.8939 112.098 29.4534 113.507 30.5499C114.893 31.6464 115.586 33.1905 115.586 35.1822C115.586 36.6368 115.295 37.8453 114.714 38.7852C114.111 39.7474 113.216 40.5083 111.964 41.1125L116.302 49.5044V49.7058H110.936L107.269 42.3657ZM104.542 38.4942H107.716C108.678 38.4942 109.393 38.2481 109.863 37.7557C110.355 37.241 110.578 36.5473 110.578 35.6522C110.578 34.757 110.355 34.0409 109.863 33.5262C109.371 33.0115 108.655 32.7654 107.716 32.7654H104.542V38.4942ZM135.484 39.7251C135.484 41.7615 135.104 43.5741 134.366 45.1183C133.606 46.6847 132.533 47.8932 131.147 48.7436C129.76 49.5939 128.195 49.9967 126.429 49.9967C124.641 49.9967 123.076 49.5939 121.712 48.7883C120.348 47.9603 119.275 46.7966 118.493 45.2749C117.732 43.7755 117.33 42.03 117.308 40.0607V38.897C117.308 36.8606 117.665 35.048 118.425 33.4815C119.163 31.9374 120.236 30.7289 121.622 29.8785C123.031 29.0282 124.618 28.603 126.385 28.603C128.151 28.603 129.716 29.0282 131.102 29.8562C132.488 30.7065 133.561 31.8926 134.321 33.4367C135.081 35.0032 135.484 36.7711 135.484 38.7852V39.7251ZM130.386 38.8523C130.386 36.7935 130.051 35.2046 129.358 34.1304C128.665 33.0563 127.681 32.5192 126.385 32.5192C123.881 32.5192 122.561 34.4214 122.405 38.2033V39.7251C122.405 41.7615 122.74 43.3504 123.411 44.4469C124.082 45.5434 125.088 46.0805 126.429 46.0805C127.681 46.0805 128.665 45.5434 129.336 44.4693C130.029 43.3951 130.386 41.8286 130.386 39.8146V38.8523Z" fill="#A9B9D9"/>
</g>
<defs>
<clipPath id="clip0">
<rect width="135.484" height="50" fill="white"/>
</clipPath>
</defs>
</svg>
