<svg width="89" height="38" viewBox="0 0 89 38" fill="none" xmlns="http://www.w3.org/2000/svg">
<path fill-rule="evenodd" clip-rule="evenodd" d="M0 38H76.7257C79.4022 38 81.7813 35.9219 82.3761 33.5469L88.6212 0H11.8955C9.51637 0 6.83989 2.07812 6.5425 4.45312L0 38Z" fill="#A32D31"/>
<path d="M6.54248 24.6406C7.13725 22.8594 7.73203 20.7812 8.02941 18.4062C8.62419 16.0312 8.92157 13.6562 9.21896 10.9844C9.51635 11.2812 9.81373 11.2812 10.1111 11.2812C10.1111 11.2812 10.1111 11.2812 10.4085 11.2812H10.7059C11.0033 11.2812 11.0033 11.2812 11.3007 10.9844C11.0033 12.1719 10.7059 13.3594 10.4085 14.8438L10.1111 16.9219C10.4085 16.9219 10.7059 16.9219 11.3007 16.9219C12.4902 16.9219 13.085 16.9219 13.3824 16.9219C14.2745 16.9219 15.4641 16.9219 17.2484 16.9219H17.5458L17.8432 14.8438C18.1406 13.9531 18.1406 13.0625 18.4379 12.7656C18.4379 12.1719 18.4379 11.5781 18.4379 10.9844C18.7353 11.2812 19.0327 11.2812 19.0327 11.2812C19.3301 11.2812 19.3301 11.2812 19.6275 11.2812C19.6275 11.2812 19.6275 11.2812 19.9249 11.2812C19.9249 11.2812 20.2223 11.2812 20.5196 10.9844C19.9249 13.6562 19.3301 16.3281 18.7353 18.4062C18.4379 20.7812 18.1406 22.8594 17.8432 24.6406C17.5458 24.6406 17.2484 24.6406 17.2484 24.6406C16.951 24.6406 16.951 24.6406 16.951 24.6406C16.6536 24.6406 16.6536 24.6406 16.3562 24.6406C16.3562 24.6406 16.0588 24.6406 15.7615 24.6406C16.0588 23.75 16.3562 22.8594 16.3562 22.2656C16.6536 21.6719 16.6536 21.0781 16.6536 20.4844L17.2484 17.8125C16.6536 17.8125 16.0588 17.8125 15.1667 17.8125C14.5719 17.8125 13.9771 17.8125 13.6798 17.8125C13.085 17.8125 12.4902 17.8125 11.8954 17.8125C11.3007 17.8125 10.4085 17.8125 9.81373 17.8125L9.51635 20.1875C9.21896 20.7812 9.21896 21.375 8.92157 22.2656C8.92157 22.8594 8.92157 23.75 8.62419 24.6406C8.3268 24.6406 8.3268 24.6406 8.02941 24.6406H7.73203C7.43464 24.6406 7.43464 24.6406 7.13725 24.6406C7.13725 24.6406 6.83987 24.6406 6.54248 24.6406ZM22.304 11.5781C22.304 11.2812 22.6014 11.2812 22.6014 10.9844C22.8987 10.6875 23.1961 10.6875 23.4935 10.6875C23.7909 10.6875 23.7909 10.6875 24.0883 10.9844C24.3857 10.9844 24.3857 11.2812 24.3857 11.5781C24.3857 11.875 24.3857 12.1719 24.0883 12.4688C23.7909 12.4688 23.7909 12.7656 23.4935 12.7656C23.1961 12.7656 22.8987 12.4688 22.6014 12.4688C22.6014 12.1719 22.304 11.875 22.304 11.5781ZM20.2223 24.6406C20.817 22.5625 21.1144 20.7812 21.4118 19C21.7092 17.5156 22.0066 16.0312 22.0066 15.1406H22.304C22.6014 15.1406 22.8987 15.1406 22.8987 15.1406C23.1961 15.1406 23.1961 15.1406 23.4935 15.1406C23.4935 15.1406 23.7909 15.1406 24.0883 15.1406C23.4935 16.9219 22.8987 18.7031 22.6014 20.4844C22.6014 21.9688 22.304 23.4531 22.304 24.6406C22.0066 24.6406 21.7092 24.6406 21.7092 24.6406C21.4118 24.6406 21.4118 24.6406 21.1144 24.6406C21.1144 24.6406 21.1144 24.6406 20.817 24.6406C20.817 24.6406 20.5196 24.6406 20.2223 24.6406ZM28.8465 23.75C29.7386 23.75 30.6308 23.1562 31.2256 22.2656C31.8203 21.375 32.1177 20.1875 32.1177 18.7031C32.1177 17.8125 32.1177 17.2188 31.5229 16.625C31.2256 16.0312 30.6308 16.0312 30.036 16.0312C29.1439 16.0312 28.2517 16.3281 27.6569 17.5156C26.7648 18.4062 26.4674 19.5938 26.4674 21.0781C26.4674 21.9688 26.7648 22.5625 27.0622 23.1562C27.3595 23.4531 27.9543 23.75 28.8465 23.75ZM22.8987 29.9844C23.4935 27.9062 24.0883 25.8281 24.3857 23.1562C24.9804 20.4844 25.5752 17.8125 25.8726 15.1406C26.17 15.1406 26.17 15.1406 26.4674 15.1406C26.4674 15.1406 26.4674 15.1406 26.7648 15.1406H27.0622C27.3595 15.1406 27.3595 15.1406 27.6569 15.1406L27.3595 16.625C27.6569 16.0312 28.2517 15.4375 28.8465 15.4375C29.4412 15.1406 30.036 14.8438 30.6308 14.8438C31.5229 14.8438 32.4151 15.1406 33.0099 16.0312C33.6047 16.625 33.902 17.5156 33.902 19C33.902 20.4844 33.6047 21.9688 32.4151 23.1562C31.5229 24.3438 30.3334 24.9375 28.8465 24.9375C28.2517 24.9375 27.6569 24.6406 27.0622 24.3438C26.7648 24.0469 26.17 23.4531 26.17 22.8594L25.5752 24.9375C25.5752 25.2344 25.5752 25.2344 25.5752 25.5312C25.2778 27.3125 24.9804 28.7969 24.6831 29.9844C24.3857 29.9844 24.3857 29.9844 24.0883 29.9844C24.0883 29.9844 24.0883 29.9844 23.7909 29.9844H23.4935C23.1961 29.9844 23.1961 29.9844 22.8987 29.9844ZM36.5785 19C36.5785 19 36.8759 19 37.1733 19C38.0655 19 38.3628 19 38.6602 19C38.9576 19 39.5524 19 40.4445 19C40.7419 19 41.0393 19 41.0393 19C41.0393 18.7031 41.3367 18.7031 41.3367 18.4062V18.1094C41.3367 17.2188 41.0393 16.625 40.7419 16.3281C40.4445 15.7344 39.8498 15.7344 39.255 15.7344C38.6602 15.7344 38.0655 16.0312 37.4707 16.625C37.1733 17.2188 36.5785 17.8125 36.5785 19ZM36.2811 19.8906C36.2811 19.8906 36.2811 20.1875 36.2811 20.4844C36.2811 20.7812 36.2811 20.7812 36.2811 21.0781C36.2811 21.9688 36.5785 22.5625 36.8759 23.1562C37.4707 23.75 38.0655 24.0469 38.9576 24.0469C39.255 24.0469 39.8498 23.75 40.4445 23.4531C40.7419 23.4531 41.3367 22.8594 41.9315 22.5625H42.2289C41.9315 22.8594 41.9315 23.1562 41.9315 23.1562C41.6341 23.4531 41.6341 23.75 41.6341 24.0469C41.0393 24.3438 40.4445 24.6406 40.1472 24.6406C39.5524 24.9375 38.9576 24.9375 38.3628 24.9375C37.1733 24.9375 36.2811 24.6406 35.389 23.75C34.7942 23.1562 34.1994 21.9688 34.1994 20.7812C34.1994 19 34.7942 17.8125 35.6864 16.625C36.8759 15.4375 38.0655 14.8438 39.5524 14.8438C40.4445 14.8438 41.3367 15.1406 41.9315 16.0312C42.5262 16.625 42.8236 17.5156 42.8236 18.7031V19C42.8236 19.2969 42.8236 19.5938 42.8236 19.8906H42.5262C41.0393 19.8906 39.8498 19.8906 39.255 19.8906C39.255 19.8906 38.9576 19.8906 38.0655 19.8906C37.4707 19.8906 36.8759 19.8906 36.2811 19.8906ZM42.8236 24.6406C43.4184 22.8594 43.7158 21.0781 44.0132 19.5938C44.3106 17.8125 44.608 16.3281 44.608 15.1406C44.9053 15.1406 44.9053 15.1406 45.2027 15.1406H45.5001H45.7975C46.0949 15.1406 46.0949 15.1406 46.3923 15.1406C46.3923 15.4375 46.0949 15.7344 46.0949 16.0312C46.0949 16.3281 46.0949 16.625 46.0949 16.9219C46.3923 16.3281 46.987 15.7344 47.2844 15.4375C47.8792 15.1406 48.474 14.8438 48.7714 14.8438H49.0688C49.0688 14.8438 49.0688 15.1406 49.3661 15.1406C49.3661 15.4375 49.0688 15.7344 49.0688 15.7344C49.0688 16.0312 49.0688 16.3281 49.0688 16.625C48.7714 16.625 48.7714 16.625 48.474 16.625H48.1766C47.2844 16.625 46.3923 17.2188 46.0949 18.1094C45.5001 19.2969 45.2027 21.375 44.9053 24.6406C44.608 24.6406 44.3106 24.6406 44.3106 24.6406C44.0132 24.6406 44.0132 24.6406 43.7158 24.6406C43.7158 24.6406 43.7158 24.6406 43.4184 24.6406C43.4184 24.6406 43.121 24.6406 42.8236 24.6406ZM55.9086 24.0469C55.3139 24.3438 54.7191 24.6406 54.4217 24.6406C53.8269 24.9375 53.2322 24.9375 52.9348 24.9375C51.7452 24.9375 50.5557 24.6406 49.9609 23.75C49.0688 22.8594 48.7714 21.9688 48.7714 20.7812C48.7714 19 49.0688 17.8125 50.2583 16.625C51.1505 15.4375 52.6374 14.8438 54.1243 14.8438C54.7191 14.8438 55.3139 15.1406 55.9086 15.1406C56.5034 15.1406 56.8008 15.4375 57.3956 15.7344C57.0982 16.0312 57.0982 16.3281 57.0982 16.625C56.8008 16.9219 56.8008 17.2188 56.8008 17.5156H56.5034C56.206 16.9219 55.9086 16.3281 55.6113 16.0312C55.0165 15.7344 54.7191 15.7344 54.1243 15.7344C53.2322 15.7344 52.34 16.3281 51.4478 17.2188C50.8531 18.1094 50.5557 19.2969 50.5557 20.7812C50.5557 21.9688 50.8531 22.5625 51.1505 23.1562C51.7452 23.75 52.34 24.0469 53.2322 24.0469C53.8269 24.0469 54.1243 23.75 54.7191 23.4531C55.3139 23.4531 55.6113 23.1562 55.9086 22.5625L56.206 22.8594C56.206 23.1562 56.206 23.1562 55.9086 23.4531C55.9086 23.75 55.9086 23.75 55.9086 24.0469ZM61.8564 23.4531C61.2616 23.75 60.9642 24.3438 60.3694 24.3438C60.0721 24.6406 59.4773 24.9375 58.8825 24.9375C58.2877 24.9375 57.693 24.6406 57.0982 24.3438C56.8008 23.75 56.5034 23.1562 56.5034 22.5625C56.5034 21.6719 56.8008 20.7812 57.3956 20.4844C57.9903 19.8906 58.8825 19.5938 60.3694 19.2969L62.1538 19C62.4511 19 62.4511 18.7031 62.7485 18.4062C62.7485 18.1094 62.7485 17.8125 62.7485 17.2188C62.7485 16.625 62.7485 16.3281 62.4511 16.0312C62.1538 15.7344 61.8564 15.7344 61.2616 15.7344C60.6668 15.7344 60.0721 15.7344 59.7747 16.0312C59.1799 16.3281 58.8825 16.625 58.5851 17.2188H58.2877C58.2877 16.9219 58.2877 16.9219 58.2877 16.625C58.2877 16.3281 58.2877 16.3281 58.2877 16.0312C58.2877 15.7344 58.2877 15.7344 58.2877 15.7344C58.8825 15.4375 59.4773 15.1406 59.7747 15.1406C60.3694 14.8438 60.9642 14.8438 61.2616 14.8438C62.4511 14.8438 63.0459 15.1406 63.6407 15.4375C64.2355 16.0312 64.2355 16.625 64.2355 17.2188C64.2355 17.5156 64.2355 17.8125 64.2355 18.1094C64.2355 18.4062 64.2355 18.7031 64.2355 19.2969L63.3433 22.5625C63.3433 22.8594 63.3433 22.8594 63.3433 22.8594C63.3433 23.1562 63.3433 23.1562 63.3433 23.4531C63.3433 23.4531 63.3433 23.75 63.6407 23.75C63.6407 23.75 63.6407 24.0469 63.9381 24.0469H64.2355C64.2355 23.75 64.5329 23.75 64.5329 23.75L64.8302 24.3438C64.5329 24.3438 64.2355 24.6406 63.9381 24.6406C63.6407 24.6406 63.3433 24.9375 63.0459 24.9375C62.7485 24.9375 62.4511 24.6406 62.1538 24.3438C61.8564 24.0469 61.8564 23.75 61.8564 23.4531ZM62.4511 19.5938L60.6668 19.8906C59.7747 20.1875 59.1799 20.4844 58.8825 20.7812C58.2877 21.375 58.2877 21.6719 58.2877 22.2656C58.2877 22.8594 58.2877 23.1562 58.5851 23.4531C58.8825 23.75 59.1799 23.75 59.4773 23.75C60.0721 23.75 60.6668 23.4531 61.2616 23.1562C61.559 22.8594 61.8564 22.2656 61.8564 21.6719L62.4511 19.5938ZM65.1276 24.6406C65.7224 22.8594 66.0198 21.0781 66.3172 19.5938C66.6146 17.8125 66.6146 16.3281 66.9119 15.1406H67.2093C67.5067 15.1406 67.5067 15.1406 67.8041 15.1406C67.8041 15.1406 67.8041 15.1406 68.1015 15.1406C68.1015 15.1406 68.3989 15.1406 68.6963 15.1406C68.3989 15.4375 68.3989 15.7344 68.3989 16.0312C68.3989 16.3281 68.1015 16.625 68.1015 16.9219C68.6963 16.3281 68.9937 15.7344 69.5884 15.4375C70.1832 15.1406 70.4806 14.8438 71.0754 14.8438C71.3727 14.8438 71.3727 15.1406 71.3727 15.1406C71.3727 15.4375 71.3727 15.7344 71.3727 15.7344C71.3727 16.0312 71.3727 16.3281 71.0754 16.625H70.778C70.4806 16.625 70.4806 16.625 70.1832 16.625C69.291 16.625 68.6963 17.2188 68.1015 18.1094C67.8041 19.2969 67.2093 21.375 66.9119 24.6406C66.9119 24.6406 66.6146 24.6406 66.3172 24.6406H66.0198H65.7224C65.7224 24.6406 65.425 24.6406 65.1276 24.6406ZM77.6179 23.1562C77.3205 23.75 76.7257 24.3438 76.1309 24.3438C75.5362 24.6406 74.9414 24.9375 74.3466 24.9375C73.4545 24.9375 72.5623 24.6406 71.9675 23.75C71.3727 23.1562 71.0754 21.9688 71.0754 20.7812C71.0754 19.2969 71.3727 17.8125 72.5623 16.625C73.4545 15.4375 74.644 14.8438 76.1309 14.8438C76.7257 14.8438 77.3205 15.1406 77.9152 15.4375C78.2126 15.7344 78.8074 16.3281 78.8074 16.9219L79.4022 14.8438C79.4022 13.6562 79.6996 12.7656 79.997 12.1719C79.997 11.2812 79.997 10.3906 80.2943 9.79688C80.5917 9.79688 80.5917 9.79688 80.8891 9.79688C80.8891 9.79688 80.8891 9.79688 81.1865 9.79688H81.4839C81.7813 9.79688 82.0787 9.79688 82.0787 9.79688C81.4839 12.1719 80.8891 14.5469 80.2943 17.2188C79.997 19.5938 79.4022 22.2656 79.1048 24.6406C78.8074 24.6406 78.8074 24.6406 78.51 24.6406C78.51 24.6406 78.51 24.6406 78.2126 24.6406H77.9152C77.6179 24.6406 77.6179 24.6406 77.3205 24.6406L77.6179 23.1562ZM76.1309 16.0312C75.2388 16.0312 74.3466 16.625 73.7518 17.5156C73.1571 18.4062 72.8597 19.8906 72.8597 21.0781C72.8597 21.9688 72.8597 22.8594 73.4545 23.1562C73.7518 23.75 74.0492 23.75 74.9414 23.75C75.8335 23.75 76.7257 23.4531 77.3205 22.2656C78.2126 21.375 78.51 20.1875 78.51 18.7031C78.51 17.8125 78.2126 17.2188 77.9152 16.625C77.6179 16.3281 77.0231 16.0312 76.1309 16.0312Z" fill="white"/>
</svg>
