<svg width="65" height="50" viewBox="0 0 65 50" fill="none" xmlns="http://www.w3.org/2000/svg">
<path fill-rule="evenodd" clip-rule="evenodd" d="M11.764 49.8742V46.5765C11.764 45.2888 11.0071 44.4722 9.6509 44.4722C8.98859 44.4722 8.2632 44.6921 7.79012 45.4144C7.38012 44.7863 6.84396 44.4722 5.99242 44.4722C5.45626 44.4722 4.88856 44.6292 4.44702 45.226V44.5664H3.28009V49.8742H4.44702V46.9534C4.44702 46.0112 4.95164 45.5715 5.70857 45.5715C6.49703 45.5715 6.8755 46.074 6.8755 46.9534V49.8742H8.04243V46.9534C8.04243 46.0112 8.61012 45.5715 9.33551 45.5715C10.0924 45.5715 10.5024 46.074 10.5024 46.9534V49.8742H11.764ZM29.0472 44.5664H27.1549V42.9647H25.9879V44.5664H24.9472V45.6343H25.9879V48.0526C25.9879 49.2775 26.4925 49.9998 27.8172 49.9998C28.3218 49.9998 28.8895 49.8114 29.2679 49.5916L28.921 48.6179C28.6056 48.8378 28.1956 48.9006 27.9433 48.9006C27.3756 48.9006 27.1549 48.5551 27.1549 47.9898V45.6343H29.0472V44.5664ZM38.9188 44.4722C38.2565 44.4722 37.8149 44.7863 37.5311 45.226V44.5664H36.3641V49.8742H37.5311V46.8906C37.5311 46.0112 37.9411 45.5086 38.6665 45.5086C38.8872 45.5086 39.1395 45.5715 39.3603 45.6343L39.7072 44.5036C39.4865 44.4722 39.1395 44.4722 38.9188 44.4722ZM24.001 45.0061C23.4333 44.6292 22.6448 44.4722 21.8248 44.4722C20.5002 44.4722 19.6171 45.1318 19.6171 46.1682C19.6171 47.0476 20.2794 47.5501 21.4464 47.7385L21.9825 47.7699C22.6133 47.8956 22.9287 48.0526 22.9287 48.3353C22.9287 48.7122 22.4871 48.9948 21.6987 48.9948C20.9417 48.9948 20.311 48.7122 19.9325 48.4295L19.3963 49.3403C19.9956 49.78 20.8156 49.9998 21.6671 49.9998C23.2125 49.9998 24.0956 49.2775 24.0956 48.2725C24.0956 47.3302 23.3702 46.8277 22.2664 46.6707L21.6987 46.6079C21.2256 46.5765 20.8156 46.4509 20.8156 46.1368C20.8156 45.7285 21.2256 45.5086 21.8248 45.5086C22.4871 45.5086 23.1494 45.7913 23.4964 45.9483L24.001 45.0061ZM54.972 44.4722C54.3096 44.4722 53.8681 44.7863 53.5843 45.226V44.5664H52.4173V49.8742H53.5843V46.8906C53.5843 46.0112 53.9943 45.5086 54.6881 45.5086C54.9089 45.5086 55.1927 45.5715 55.4135 45.6343L55.7604 44.5036C55.5397 44.4722 55.1927 44.4722 54.972 44.4722ZM40.0857 47.236C40.0857 48.8378 41.2211 49.9998 42.9242 49.9998C43.7127 49.9998 44.2488 49.8114 44.8165 49.3717L44.2488 48.4295C43.8073 48.775 43.3657 48.932 42.8611 48.932C41.915 48.932 41.2526 48.2725 41.2526 47.236C41.2526 46.231 41.915 45.5715 42.8611 45.5086C43.3657 45.5086 43.8073 45.6657 44.2488 46.0112L44.8165 45.0689C44.2488 44.6292 43.7127 44.4722 42.9242 44.4722C41.2211 44.4722 40.0857 45.6343 40.0857 47.236ZM50.8719 47.236V44.5664H49.705V45.226C49.3265 44.7549 48.7588 44.4722 48.0335 44.4722C46.5511 44.4722 45.3842 45.6343 45.3842 47.236C45.3842 48.8378 46.5511 49.9998 48.0335 49.9998C48.8219 49.9998 49.3581 49.7172 49.705 49.2147V49.8742H50.8719V47.236ZM46.5827 47.236C46.5827 46.2938 47.2134 45.5086 48.1911 45.5086C49.1373 45.5086 49.7996 46.231 49.7996 47.236C49.7996 48.1782 49.1373 48.932 48.1911 48.932C47.2134 48.9006 46.5827 48.1782 46.5827 47.236ZM32.6426 44.4722C31.0972 44.4722 29.9933 45.5715 29.9933 47.236C29.9933 48.9006 31.0972 49.9998 32.7057 49.9998C33.4941 49.9998 34.2511 49.78 34.8818 49.2775L34.3141 48.4295C33.8726 48.775 33.3049 48.9948 32.7687 48.9948C32.0434 48.9948 31.318 48.6808 31.1603 47.7385H35.1026V47.2674C35.1657 45.5715 34.1564 44.4722 32.6426 44.4722ZM32.6426 45.4458C33.368 45.4458 33.8726 45.8855 33.9987 46.7335H31.2233C31.318 46.0112 31.8226 45.4458 32.6426 45.4458ZM61.5951 47.236V42.4622H60.4281V45.226C60.0181 44.7549 59.482 44.4722 58.7566 44.4722C57.2427 44.4722 56.0758 45.6343 56.0758 47.236C56.0758 48.8378 57.2427 49.9998 58.7566 49.9998C59.5451 49.9998 60.0812 49.7172 60.4281 49.2147V49.8742H61.5951V47.236ZM57.3058 47.236C57.3058 46.2938 57.9366 45.5086 58.9143 45.5086C59.8605 45.5086 60.5228 46.231 60.5228 47.236C60.5228 48.1782 59.8605 48.932 58.9143 48.932C57.9366 48.9006 57.3058 48.1782 57.3058 47.236ZM18.324 47.236V44.5664H17.1571V45.226C16.7786 44.7549 16.2109 44.4722 15.4856 44.4722C14.0032 44.4722 12.8363 45.6343 12.8363 47.236C12.8363 48.8378 14.0032 49.9998 15.4856 49.9998C16.274 49.9998 16.8417 49.7172 17.1571 49.2147V49.8742H18.324V47.236ZM14.0032 47.236C14.0032 46.2938 14.6025 45.5086 15.6117 45.5086C16.5579 45.5086 17.2202 46.231 17.2202 47.236C17.2202 48.1782 16.5579 48.932 15.6117 48.932C14.6025 48.9006 14.0032 48.1782 14.0032 47.236Z" fill="black"/>
<path d="M41.0948 4.27148H23.5909V35.5843H41.0948V4.27148Z" fill="#FF5F00"/>
<path fill-rule="evenodd" clip-rule="evenodd" d="M24.7263 19.9121C24.7263 13.5364 27.7225 7.91457 32.3271 4.27136C28.921 1.60176 24.6632 0 19.9955 0C8.92544 0 0 8.88819 0 19.9121C0 30.9045 8.92544 39.8241 19.9955 39.8241C24.6632 39.8241 28.921 38.2224 32.3271 35.5528C27.7225 31.9724 24.7263 26.2563 24.7263 19.9121Z" fill="#EB001B"/>
<path fill-rule="evenodd" clip-rule="evenodd" d="M64.6858 19.9121C64.6858 30.9045 55.7603 39.8241 44.6903 39.8241C40.0541 39.8241 35.7648 38.2224 32.3902 35.5528C37.0264 31.9095 39.991 26.2563 39.991 19.9121C39.991 13.5364 36.9948 7.91457 32.3902 4.27136C35.7648 1.60176 40.0541 0 44.6903 0C55.7603 0 64.6858 8.951 64.6858 19.9121Z" fill="#F79E1B"/>
</svg>
