<?xml version="1.0" encoding="UTF-8"?>
<!DOCTYPE svg PUBLIC "-//W3C//DTD SVG 1.0//EN" "http://www.w3.org/TR/2001/REC-SVG-20010904/DTD/svg10.dtd">
<!-- Creator: CorelDRAW X7 -->
<svg xmlns="http://www.w3.org/2000/svg" xml:space="preserve" width="3.9794mm" height="3.9794mm" version="1.0" style="shape-rendering:geometricPrecision; text-rendering:geometricPrecision; image-rendering:optimizeQuality; fill-rule:evenodd; clip-rule:evenodd"
viewBox="0 0 398 398"
 xmlns:xlink="http://www.w3.org/1999/xlink">
 <defs>
  <style type="text/css">
   <![CDATA[
    .fil0 {fill:none}
    .fil1 {fill:#FFB47F;fill-rule:nonzero}
   ]]>
  </style>
 </defs>
 <g id="Camada_x0020_1">
  <metadata id="CorelCorpID_0Corel-Layer"/>
  <rect class="fil0" width="398" height="398"/>
  <path class="fil1" d="M9 105c2,-4 8,-5 12,-3 4,3 5,8 2,12 -2,3 -4,7 -5,9 -1,3 -1,5 -1,7 0,10 4,20 11,27l1 1c7,7 16,11 27,11 11,0 21,-5 28,-12l0 0c7,-7 11,-16 11,-27l0 0 0 0 0 0c0,-5 4,-9 9,-9l0 0c4,0 8,4 8,9l0 0 0 0 0 0c0,11 5,20 12,27l0 1c7,7 17,11 27,11 11,0 21,-5 28,-12l0 0c7,-7 11,-16 12,-27l0 0 0 0 0 0c0,-5 3,-9 8,-9l0 0c5,0 8,4 8,9l0 0 0 0 0 0c1,11 5,20 12,27l0 0 0 0c7,7 17,12 28,12 10,0 20,-5 27,-12l0 0 0 0c7,-7 12,-16 12,-27l0 0 0 0 0 0c0,-5 4,-9 8,-9l0 0c5,0 9,4 9,9l0 0 0 0 0 0c0,11 4,20 11,27l0 0 0 0c7,7 17,12 28,12 11,0 20,-5 28,-12l0 0 0 0c7,-7 11,-17 11,-27 0,-14 -25,-40 -47,-64 -10,-10 -19,-20 -26,-28l-218 0c-1,2 -3,3 -5,5l0 0 0 0c-2,3 -5,6 -8,9 -3,4 -8,4 -12,1 -3,-3 -3,-9 0,-12 2,-3 5,-6 8,-9l0 0c2,-2 4,-5 6,-7 1,-2 4,-4 7,-4l226 0 0 0c3,0 5,1 7,3 6,9 16,19 27,31 24,25 52,54 52,75 0,15 -6,29 -16,39l-1 0c-10,10 -24,17 -39,17 -16,0 -30,-7 -40,-17l0 0c-3,-3 -5,-6 -8,-10 -2,4 -5,7 -8,10l0 0c-10,10 -24,17 -39,17 -16,0 -30,-7 -40,-17l0 0c-3,-3 -6,-6 -8,-10 -2,4 -5,7 -7,10l-1 0c-10,10 -24,17 -40,17 -15,0 -29,-6 -39,-16l0 -1c-3,-3 -6,-6 -8,-10 -2,4 -5,7 -8,10l0 0c-10,10 -24,17 -40,17 -15,0 -29,-6 -39,-16l-1 -1c-10,-10 -16,-24 -16,-39 0,-4 1,-8 3,-13 1,-4 3,-8 6,-12zm302 111c0,-5 4,-8 9,-8 4,0 8,3 8,8l0 109c0,5 -4,8 -8,8l-1 0 -241 0c-4,0 -8,-3 -8,-8l0 0 0 -109c0,-5 4,-8 8,-8 5,0 9,3 9,8l0 100 224 0 0 -100zm44 -11c0,-5 3,-9 8,-9 5,0 9,4 9,9l0 163c0,5 -4,9 -9,9l0 0 -328 0c-5,0 -9,-4 -9,-9l0 0 0 -163c0,-5 4,-9 9,-9 5,0 8,4 8,9l0 155 312 0 0 -155zm-316 -136c3,-4 8,-4 12,-1 3,3 3,9 0,12 -3,3 -5,6 -8,9l0 0 0 0c-3,3 -5,6 -7,8 -3,4 -9,4 -12,1 -4,-3 -4,-8 -1,-11 2,-3 5,-6 7,-9l0 0c3,-3 6,-6 9,-9z"/>
 </g>
</svg>
