<?xml version="1.0" encoding="UTF-8"?>
<!DOCTYPE svg PUBLIC "-//W3C//DTD SVG 1.0//EN" "http://www.w3.org/TR/2001/REC-SVG-20010904/DTD/svg10.dtd">
<!-- Creator: CorelDRAW X7 -->
<svg xmlns="http://www.w3.org/2000/svg" xml:space="preserve" width="3.9794mm" height="3.5573mm" version="1.0" style="shape-rendering:geometricPrecision; text-rendering:geometricPrecision; image-rendering:optimizeQuality; fill-rule:evenodd; clip-rule:evenodd"
viewBox="0 0 398 356"
 xmlns:xlink="http://www.w3.org/1999/xlink">
 <defs>
  <style type="text/css">
   <![CDATA[
    .str0 {stroke:#FFB47F;stroke-width:16.93;stroke-linecap:round;stroke-linejoin:round}
    .fil0 {fill:none}
   ]]>
  </style>
 </defs>
 <g id="Camada_x0020_1">
  <metadata id="CorelCorpID_0Corel-Layer"/>
  <g id="_2756909152512">
   <path class="fil0 str0" d="M71 25c6,-6 11,-11 15,-17l226 0c22,28 77,76 77,100 0,27 -21,48 -47,48 -26,0 -48,-21 -48,-48 0,27 -21,48 -47,48 -27,0 -48,-21 -48,-48 0,27 -21,48 -48,48 -26,0 -47,-21 -47,-48 0,27 -22,48 -48,48 -26,0 -48,-21 -48,-48 0,-5 3,-12 8,-19m13 -18c5,-6 10,-12 16,-18"/>
   <path class="fil0 str0" d="M363 184l0 163 -328 0 0 -163"/>
   <path class="fil0 str0" d="M320 195l0 109 -242 0 0 -109"/>
  </g>
 </g>
</svg>
