<svg width="78" height="25" viewBox="0 0 78 25" fill="none" xmlns="http://www.w3.org/2000/svg">
<path d="M39.9619 7.99237C39.9178 11.4748 43.0595 13.4183 45.4262 14.5736C47.8578 15.7593 48.6745 16.5194 48.6652 17.5795C48.6467 19.2022 46.7255 19.9182 44.9273 19.9461C41.7903 19.9949 39.9666 19.0975 38.5164 18.4187L37.3864 23.7168C38.8412 24.3886 41.5351 24.9744 44.3287 25C50.8857 25 55.1759 21.757 55.1991 16.7287C55.2246 10.3473 46.3891 9.99395 46.4494 7.14153C46.4703 6.27673 47.294 5.35382 49.0991 5.11902C49.9924 5.00046 52.4589 4.9098 55.2548 6.20002L56.3523 1.07402C54.8488 0.525383 52.916 -3.8147e-06 50.5099 -3.8147e-06C44.3379 -3.8147e-06 39.9967 3.28715 39.9619 7.99237ZM66.8979 0.441692C65.7006 0.441692 64.6913 1.14143 64.2412 2.21545L54.8743 24.6234H61.4267L62.7307 21.0131H70.7379L71.4943 24.6234H77.2695L72.2299 0.441692H66.8979ZM67.8144 6.97415L69.7054 16.0545H64.5266L67.8144 6.97415ZM32.0173 0.441692L26.8524 24.6234H33.0963L38.2589 0.441692H32.0173ZM22.7804 0.441692L16.2813 16.9007L13.6524 2.90589C13.3438 1.34368 12.1257 0.441692 10.773 0.441692H0.148497L0 1.14376C2.18105 1.618 4.65909 2.38283 6.16031 3.20113C7.07913 3.70095 7.34132 4.13799 7.64295 5.32592L12.6222 24.6234H19.2211L29.3374 0.441692H22.7804Z" fill="url(#paint0_linear)"/>
<defs>
<linearGradient id="paint0_linear" x1="35.524" y1="25.5015" x2="36.249" y2="-0.173779" gradientUnits="userSpaceOnUse">
<stop stop-color="#222357"/>
<stop offset="1" stop-color="#254AA5"/>
</linearGradient>
</defs>
</svg>
